<?xml version="1.0" encoding="utf-8"?>
<!-- Generator: Adobe Illustrator 28.0.0, SVG Export Plug-In . SVG Version: 6.00 Build 0)  -->
<svg version="1.1" id="Ebene_1" xmlns="http://www.w3.org/2000/svg" xmlns:xlink="http://www.w3.org/1999/xlink" x="0px" y="0px"
	 viewBox="0 0 470 507.12" style="enable-background:new 0 0 470 507.12;" xml:space="preserve">
<style type="text/css">
	.st0{fill:#EDBB1C;stroke:#010202;stroke-width:2.5;stroke-miterlimit:10;}
	.st1{fill:#2E8034;stroke:#010202;stroke-width:2.5;stroke-miterlimit:10;}
	.st2{fill:#FFFFFF;}
	.st3{fill:#020203;}
	.st4{fill:#F0821B;stroke:#010202;stroke-width:2;stroke-miterlimit:10;}
	.st5{fill:#F0821B;stroke:#010202;stroke-width:2.5;stroke-miterlimit:10;}
	.st6{display:none;}
	.st7{display:inline;fill:#FFFFFF;}
	.st8{display:inline;}
	.st9{fill:none;}
	.st10{fill:#FFFFFF;stroke:#010202;stroke-width:2.5;stroke-miterlimit:10;}
	.st11{display:inline;fill:#FFFFFF;stroke:#010202;stroke-width:2.5;stroke-miterlimit:10;}
</style>
<circle class="st0" cx="235" cy="235" r="233.75"/>
<path class="st1" d="M357.85,215.41c-0.06-1.3-0.48-1.89-1.28-1.78c27.55,25.45,36.61,59.44,38.14,95.26
	c1.26,29.73-3.21,57.08-13.71,85.21c-2.47,6.61-4.78,12.47-7.77,18.35c-1.77,3.48-7.61,12.13-7.37,12.96
	c-7.68-14.95-21.85-31.63-40.47-29.03c-17.99,2.51-30.93,16.72-49.08,19.86c-28.02,4.85-60.38,3.92-81.65-17.89
	c-11.14-11.42-24.78-21.78-41.41-24.28c-17-2.55-33.42,1.21-47.57-11.73c-7.7-7.03-7.59-15.57-13-23.87
	c-5.35-8.19-10.79-17.26-17.4-24.25c-6.07-6.42-14.77-11.89-23.69-13.12c-4.13-0.57-12.31,1.79-11.56-4.87
	c0.68-6.01,15.49-10.06,20.94-11.54c9.78-2.65,19.41-4.18,29.17-7.21c18.55-5.75,37.7-12.41,54.97-20.93
	c7.38-3.64,31.44-23.06,36.95-28.11c5.81-5.32,16.79-12.52,19.85-18.77c2.45-5.01-1.43-18.35,3.74-21.55
	c3.27-2.02,18.17,5.23,21.41,6.29c24.28,7.87,48.64,12.7,74.04,15.8c13.05,1.59,26.02-0.18,39.03-0.31
	C345.86,209.86,354.89,217.32,357.85,215.41z"/>
<g>
	<g>
		<g>
			<path class="st2" d="M133.67,396.9c-8.15,18-10.53,41.48-6.22,61.3c0.24,0.99,0.75,1.85,1.44,2.52c0.33,0.32,0.71,0.6,1.12,0.82
				c-0.37-0.05-0.74-0.16-1.09-0.35c-1.07-0.59-1.94-1.81-2.26-3.19c-2.08-8.63-2.47-18.69-1.23-31.66
				c0.61-5.97,1.49-11.24,2.68-16.11l0.31-1.27c1.08-4.37,2.42-9.8,4.96-12.98c0.54-0.68,1.56-1.3,2.61-1.57
				C134.99,395.05,134.14,395.93,133.67,396.9z"/>
			<path class="st2" d="M140.57,425.42c-0.01,0.35,0.13,0.66,0.36,0.88c0.2,0.2,0.48,0.32,0.78,0.33c4,0.12,9.25,2.17,11.56,5.87
				c0.69,1.32,1.45,3,1.98,5.39c1.46,6.58-1.66,15.22-6.82,18.87c-5.85,4.16-12.21,3.93-16.51,3.01c-1.11-0.24-1.92-1.02-2.18-2.09
				c-4.2-19.33-1.89-42.24,6.06-59.77c0.52-1.08,2.04-2.08,3.23-2.13c1.54-0.06,3.15,0.46,4.93,1.09c0.83,0.29,2.02,1.26,3.17,2.19
				c1.06,0.86,2.13,1.72,3.2,2.32c-1.51,1.88-2.21,4.27-2.65,6.26c-0.09,0.42,0.05,0.83,0.33,1.1c0.15,0.15,0.34,0.25,0.57,0.3
				c0.64,0.14,1.26-0.26,1.4-0.9c0.44-2.01,1.17-4.48,2.84-5.99c3.05-0.07,4.7,0.31,6.03,2.71c2.53,4.59,2.65,11.16,0.28,15.98
				c-0.7,1.43-1.67,2.56-2.78,3.25c-0.38,0.24-1.03,0.56-1.59,0.8c-0.16-0.04-0.33-0.06-0.51-0.03c-0.13,0.02-0.25,0.02-0.38,0.03
				c-0.13-0.06-0.27-0.09-0.42-0.1c-0.1-0.01-0.2,0.02-0.3,0.04c-1.03-0.22-1.93-0.96-2.42-1.77c-0.85-1.41-1.09-3.33-1.29-5.01
				c-0.13-1.11-0.28-2.38-0.06-3.45c0.13-0.64-0.29-1.26-0.93-1.39c-0.64-0.13-1.26,0.29-1.39,0.92c-0.29,1.43-0.11,2.96,0.03,4.19
				c0.22,1.84,0.5,4.11,1.61,5.95c0.28,0.48,0.63,0.91,1.02,1.28c0.69,0.66,1.52,1.15,2.39,1.44c-0.02,0.28-0.06,0.56-0.09,0.83
				c-3.09-2.3-7.09-3.46-10.26-3.55C141.13,424.25,140.59,424.77,140.57,425.42z"/>
			<path class="st3" d="M131.53,394.52c-2.86,3.58-4.27,9.29-5.4,13.88l-0.31,1.26c-1.22,4.98-2.12,10.36-2.74,16.44
				c-1.27,13.25-0.86,23.55,1.28,32.44c0.34,1.44,1.09,2.75,2.08,3.71c0.41,0.39,0.86,0.73,1.34,0.99c1.41,0.77,2.97,0.89,4.53,0.35
				c0.77-0.27,1.46-0.65,2.14-1.07c5.64,0.55,11-0.77,15.35-3.86c5.95-4.21,9.44-13.77,7.76-21.31c-0.72-3.23-1.83-5.33-2.57-6.73
				c-0.33-0.63-0.74-1.41-0.72-1.63c0.08-0.51,0.14-1.02,0.19-1.53c1.17-0.22,2.47-0.96,3.13-1.37c1.49-0.93,2.75-2.39,3.65-4.22
				c2.73-5.56,2.59-12.86-0.34-18.16c-2.08-3.76-5.14-4-8.1-3.92c-1,0.03-2.77-1.41-4.19-2.57c-1.37-1.11-2.66-2.16-3.87-2.59
				c-1.26-0.45-2.46-0.82-3.65-1.04c-0.33-0.22-0.65-0.43-0.99-0.65c-0.42-0.27-0.95-0.62-1.57-0.81
				C136,391.35,132.93,392.76,131.53,394.52z M131.93,459.76c-1.11-0.24-1.92-1.02-2.18-2.09c-4.2-19.33-1.89-42.24,6.06-59.77
				c0.52-1.08,2.04-2.08,3.23-2.13c1.54-0.06,3.15,0.46,4.93,1.09c0.83,0.29,2.02,1.26,3.17,2.19c1.06,0.86,2.13,1.72,3.2,2.32
				c-1.51,1.88-2.21,4.27-2.65,6.26c-0.09,0.42,0.05,0.83,0.33,1.1c0.15,0.15,0.34,0.25,0.57,0.3c0.64,0.14,1.26-0.26,1.4-0.9
				c0.44-2.01,1.17-4.48,2.89-5.99c2.99-0.08,4.65,0.31,5.98,2.71c2.53,4.59,2.65,11.16,0.28,15.98c-0.7,1.43-1.67,2.56-2.78,3.25
				c-0.38,0.24-1.03,0.56-1.59,0.8c-0.16-0.04-0.33-0.06-0.51-0.03c-0.13,0.02-0.25,0.02-0.38,0.03c-0.13-0.06-0.27-0.09-0.42-0.1
				c-0.1-0.01-0.2,0.02-0.3,0.04c-1.03-0.22-1.93-0.96-2.42-1.77c-0.85-1.41-1.09-3.33-1.29-5.01c-0.13-1.11-0.28-2.38-0.06-3.45
				c0.13-0.64-0.29-1.26-0.93-1.39c-0.64-0.13-1.26,0.29-1.39,0.92c-0.29,1.43-0.11,2.96,0.03,4.19c0.22,1.84,0.5,4.11,1.61,5.95
				c0.28,0.48,0.63,0.91,1.02,1.28c0.69,0.66,1.52,1.15,2.39,1.44c-0.02,0.28-0.06,0.56-0.09,0.83c-3.09-2.3-7.09-3.46-10.26-3.55
				c-0.65-0.02-1.19,0.49-1.21,1.14c-0.01,0.35,0.13,0.66,0.36,0.88c0.2,0.2,0.48,0.32,0.78,0.33c4,0.12,9.25,2.17,11.6,5.91
				c0.65,1.28,1.41,2.95,1.94,5.34c1.46,6.58-1.66,15.22-6.82,18.87C142.58,460.91,136.23,460.69,131.93,459.76z M133.38,395.99
				c0.54-0.68,1.56-1.3,2.61-1.57c-0.99,0.63-1.85,1.51-2.32,2.48c-8.15,18-10.53,41.48-6.22,61.3c0.24,0.99,0.75,1.85,1.44,2.52
				c0.33,0.32,0.71,0.6,1.12,0.82c-0.37-0.05-0.74-0.16-1.09-0.35c-1.07-0.59-1.94-1.81-2.26-3.19c-2.08-8.63-2.47-18.69-1.23-31.66
				c0.61-5.97,1.49-11.24,2.68-16.11l0.31-1.27C129.5,404.6,130.84,399.17,133.38,395.99z"/>
		</g>
		<g>
			<g>
				<path class="st4" d="M199.63,417.02c13.32-3.91,23.99-8.91,33.12-15.46c21.8-15.63,34.76-40.89,42.61-58.54
					c2.03-4.55-0.02-9.88-4.57-11.91c-4.55-2.02-9.88,0.02-11.91,4.58c-6.99,15.72-18.4,38.14-36.64,51.21
					c-9.17,6.57-20.6,11.34-35.97,15c-10.55,2.51-19.35,3.1-27.69,1.84c-4.93-0.74-5.58,3.26-6.32,8.18
					c-0.74,4.93-1.3,8.91,3.63,9.65c10.7,1.61,21.68,0.94,34.56-2.12C193.64,418.69,196.7,417.88,199.63,417.02z"/>
				<path class="st3" d="M155.69,422.88c-6.28-0.95-5.46-6.37-4.74-11.16c0.36-2.41,0.74-4.91,1.75-6.68
					c1.23-2.16,3.28-3.04,6.07-2.62c8.17,1.23,16.81,0.65,27.19-1.82c15.2-3.62,26.49-8.32,35.51-14.78
					c17.97-12.88,29.27-35.09,36.2-50.67c1.12-2.52,3.16-4.46,5.74-5.45c2.58-0.99,5.39-0.92,7.91,0.2
					c2.52,1.12,4.46,3.16,5.45,5.74c0.99,2.58,0.92,5.39-0.21,7.91c-7.91,17.78-20.98,43.26-43.04,59.07
					c-9.22,6.61-20.19,11.73-33.52,15.65c-2.91,0.85-6.02,1.68-9.25,2.45c-8.47,2.02-16.14,3.01-23.46,3.01
					C163.35,423.75,159.5,423.46,155.69,422.88z M264.36,332.18c-1.92,0.74-3.44,2.18-4.27,4.06
					c-7.06,15.86-18.58,38.49-37.07,51.74c-9.31,6.68-20.89,11.51-36.43,15.21c-10.73,2.55-19.68,3.14-28.19,1.86
					c-2.13-0.32-2.89,0.44-3.39,1.32c-0.77,1.34-1.1,3.59-1.43,5.76c-0.85,5.63-0.85,7.64,2.52,8.15
					c10.53,1.59,21.35,0.92,34.06-2.1c3.18-0.76,6.25-1.57,9.12-2.41c13.04-3.83,23.75-8.82,32.72-15.26
					c21.54-15.44,34.38-40.5,42.17-58c0.84-1.88,0.89-3.97,0.15-5.89c-0.74-1.92-2.18-3.44-4.06-4.27c-1-0.45-2.06-0.67-3.13-0.67
					C266.19,331.66,265.25,331.83,264.36,332.18z"/>
			</g>
		</g>
	</g>
</g>
<g>
	<g>
		<g>
			<path class="st2" d="M247.52,448.43c3.66,19.72,15.31,40.65,30.42,54.65c0.78,0.68,1.7,1.11,2.66,1.26
				c0.46,0.07,0.94,0.08,1.41,0.03c-0.34,0.18-0.71,0.3-1.11,0.34c-1.23,0.13-2.66-0.38-3.73-1.34
				c-6.75-5.98-12.91-14.13-19.41-25.65c-2.96-5.33-5.29-10.22-7.12-14.97l-0.47-1.24c-1.64-4.26-3.68-9.56-3.41-13.69
				c0.05-0.88,0.55-1.99,1.26-2.82C247.55,446.12,247.34,447.34,247.52,448.43z"/>
			<path class="st2" d="M269.82,468.16c0.19,0.29,0.49,0.47,0.81,0.53c0.28,0.05,0.58-0.01,0.84-0.18c3.4-2.22,8.97-3.56,13.03-1.83
				c1.34,0.7,2.95,1.65,4.78,3.33c5.04,4.63,7.45,13.63,5.28,19.67c-2.46,6.86-7.88,10.36-11.99,12.09
				c-1.06,0.45-2.19,0.27-3.03-0.47c-14.72-13.65-26.1-34.07-29.67-53.28c-0.19-1.2,0.49-2.92,1.45-3.65
				c1.25-0.94,2.89-1.44,4.74-1.95c0.86-0.24,2.41-0.13,3.91-0.01c1.38,0.1,2.77,0.2,4.01,0.08c-0.17,2.44,0.64,4.84,1.43,6.75
				c0.17,0.4,0.52,0.66,0.92,0.72c0.21,0.03,0.43,0.01,0.65-0.08c0.61-0.25,0.9-0.95,0.65-1.56c-0.8-1.93-1.63-4.41-1.12-6.64
				c2.49-1.83,4.1-2.47,6.6-1.24c4.77,2.35,8.68,7.75,9.52,13.14c0.25,1.6,0.1,3.1-0.43,4.32c-0.18,0.42-0.53,1.07-0.86,1.58
				c-0.16,0.06-0.31,0.14-0.44,0.27c-0.09,0.09-0.2,0.17-0.3,0.25c-0.14,0.03-0.28,0.08-0.4,0.16c-0.09,0.06-0.15,0.14-0.22,0.21
				c-0.98,0.41-2.17,0.32-3.04-0.07c-1.53-0.68-2.84-2.14-3.99-3.42c-0.75-0.85-1.61-1.83-2.06-2.84c-0.26-0.61-0.97-0.88-1.58-0.62
				c-0.61,0.26-0.88,0.97-0.62,1.57c0.59,1.36,1.63,2.53,2.46,3.47c1.25,1.4,2.8,3.13,4.8,4.02c0.51,0.23,1.05,0.39,1.59,0.48
				c0.96,0.15,1.93,0.08,2.83-0.2c0.14,0.24,0.28,0.5,0.41,0.74c-3.91-0.12-7.91,1.24-10.61,3
				C269.62,466.87,269.46,467.61,269.82,468.16z"/>
			<path class="st3" d="M244.36,447.68c-0.3,4.64,1.84,10.22,3.57,14.69l0.47,1.23c1.87,4.85,4.25,9.85,7.27,15.28
				c6.63,11.77,12.96,20.11,19.91,26.26c1.12,1,2.5,1.66,3.89,1.88c0.57,0.09,1.14,0.11,1.69,0.05c1.62-0.18,2.99-0.98,3.97-2.34
				c0.48-0.67,0.84-1.39,1.16-2.13c5.02-2.81,8.71-7.03,10.54-12.12c2.51-6.97-0.14-16.94-5.91-22.24
				c-2.47-2.27-4.62-3.38-6.05-4.11c-0.64-0.33-1.44-0.74-1.55-0.94c-0.23-0.47-0.47-0.93-0.73-1.39c0.84-0.86,1.5-2.23,1.81-2.96
				c0.7-1.64,0.91-3.58,0.59-5.63c-0.96-6.21-5.31-12.21-10.83-14.93c-3.91-1.92-6.61-0.34-9.02,1.44c-0.82,0.6-3.13,0.43-4.98,0.29
				c-1.78-0.13-3.47-0.26-4.73,0.09c-1.31,0.36-2.52,0.74-3.64,1.26c-0.4,0.01-0.79,0.02-1.2,0.03c-0.51,0.02-1.15,0.04-1.78,0.24
				C246.24,442.45,244.5,445.41,244.36,447.68z M282.57,501.77c-1.06,0.45-2.19,0.27-3.03-0.47c-14.72-13.65-26.1-34.07-29.67-53.28
				c-0.19-1.2,0.49-2.92,1.45-3.65c1.25-0.94,2.89-1.44,4.74-1.95c0.85-0.24,2.41-0.12,3.91-0.01c1.38,0.1,2.77,0.2,4.01,0.08
				c-0.17,2.44,0.64,4.84,1.43,6.75c0.17,0.4,0.52,0.66,0.92,0.72c0.21,0.03,0.43,0.01,0.65-0.08c0.61-0.25,0.9-0.95,0.65-1.56
				c-0.8-1.93-1.63-4.41-1.07-6.67c2.45-1.8,4.05-2.45,6.55-1.22c4.77,2.35,8.68,7.75,9.52,13.14c0.25,1.6,0.1,3.1-0.43,4.32
				c-0.18,0.42-0.53,1.07-0.86,1.58c-0.16,0.06-0.31,0.14-0.44,0.27c-0.09,0.09-0.2,0.17-0.3,0.25c-0.14,0.03-0.28,0.08-0.4,0.16
				c-0.09,0.06-0.15,0.14-0.22,0.21c-0.98,0.41-2.17,0.32-3.04-0.07c-1.53-0.68-2.84-2.14-3.99-3.42c-0.75-0.85-1.61-1.83-2.06-2.84
				c-0.26-0.61-0.97-0.88-1.58-0.62c-0.61,0.26-0.88,0.97-0.62,1.57c0.59,1.36,1.63,2.53,2.46,3.47c1.25,1.4,2.8,3.13,4.8,4.02
				c0.51,0.23,1.05,0.39,1.59,0.48c0.96,0.15,1.93,0.08,2.83-0.2c0.14,0.24,0.28,0.5,0.41,0.74c-3.91-0.12-7.91,1.24-10.61,3
				c-0.55,0.36-0.71,1.1-0.35,1.66c0.19,0.29,0.49,0.47,0.81,0.53c0.28,0.05,0.58-0.01,0.84-0.18c3.4-2.22,8.97-3.56,13.09-1.82
				c1.29,0.68,2.89,1.64,4.72,3.32c5.04,4.63,7.45,13.63,5.28,19.67C292.11,496.54,286.69,500.04,282.57,501.77z M246.75,447.83
				c0.05-0.88,0.55-1.99,1.26-2.82c-0.46,1.1-0.66,2.33-0.49,3.41c3.66,19.72,15.31,40.65,30.42,54.65c0.78,0.68,1.7,1.11,2.66,1.26
				c0.46,0.07,0.94,0.08,1.41,0.03c-0.34,0.18-0.71,0.3-1.11,0.34c-1.23,0.13-2.66-0.38-3.73-1.34
				c-6.75-5.98-12.91-14.13-19.41-25.65c-2.96-5.33-5.29-10.22-7.12-14.97l-0.47-1.24C248.52,457.26,246.48,451.95,246.75,447.83z"
				/>
		</g>
		<g>
			<g>
				<path class="st4" d="M314.12,426.88c8.82-10.99,14.8-21.35,18.6-32.1c9.08-25.67,5.19-54.23,1.48-73.47
					c-0.96-4.97-5.76-8.21-10.72-7.26c-4.97,0.96-8.21,5.76-7.26,10.72c3.31,17.15,6.83,42.43-0.77,63.9
					c-3.81,10.8-10.57,21.4-21.24,33.37c-7.33,8.22-14.31,13.82-21.99,17.61c-4.53,2.24-2.75,5.95-0.51,10.48
					c2.24,4.53,4.09,8.17,8.63,5.93c9.84-4.87,18.59-11.81,27.54-21.84C310.1,431.75,312.18,429.3,314.12,426.88z"/>
				<path class="st3" d="M270.52,450.74c-1.1-2.22-2.23-4.52-2.42-6.58c-0.22-2.51,0.97-4.43,3.54-5.7
					c7.51-3.71,14.37-9.21,21.58-17.3c10.56-11.84,17.22-22.3,20.98-32.93c7.48-21.16,3.99-46.21,0.71-63.2
					c-0.53-2.75,0.04-5.55,1.61-7.87c1.57-2.32,3.95-3.89,6.71-4.42c2.75-0.53,5.55,0.04,7.87,1.61c2.32,1.57,3.89,3.95,4.42,6.71
					c3.74,19.4,7.65,48.2-1.53,74.18c-3.84,10.86-9.99,21.49-18.82,32.49c-1.93,2.4-4.04,4.9-6.28,7.41
					c-9.06,10.16-17.94,17.2-27.94,22.15c-1.18,0.58-2.22,0.84-3.16,0.84C274.17,458.11,272.25,454.24,270.52,450.74z
					 M313.07,426.04c8.63-10.77,14.65-21.14,18.38-31.71c8.97-25.36,5.11-53.68,1.43-72.77c-0.4-2.05-1.56-3.82-3.29-4.99
					c-1.73-1.17-3.81-1.6-5.86-1.2c-2.05,0.4-3.82,1.56-4.99,3.29c-1.17,1.73-1.6,3.81-1.2,5.86c3.34,17.3,6.88,42.83-0.82,64.61
					c-3.87,10.96-10.71,21.71-21.5,33.82c-7.45,8.35-14.56,14.05-22.39,17.92c-1.96,0.97-2.15,2.04-2.05,3.06
					c0.14,1.56,1.16,3.63,2.15,5.63c2.56,5.18,3.74,6.85,6.83,5.32c9.69-4.79,18.31-11.63,27.13-21.53
					C309.09,430.87,311.17,428.41,313.07,426.04L313.07,426.04z"/>
			</g>
		</g>
	</g>
</g>
<g>
	<g>
		<g>
			<path class="st4" d="M345.11,275.47c8.07,3.4,16.45,5.32,25.25,5.34c7.89,0.02,16.03-1.43,23.35-4.41
				c7.93-3.23,15.08-7.73,21.12-13.84c5.32-5.38,9.79-11.86,12.79-18.82c3.68-8.55,5.78-17.59,5.57-26.95
				c-0.11-4.65-4.18-9.06-9.01-8.78c-4.78,0.28-8.89,4.03-8.78,9.01c0.06,2.52-0.07,5.04-0.36,7.54c0.1-0.79,0.19-1.58,0.29-2.37
				c-0.6,4.76-1.82,9.4-3.61,13.85c0.29-0.71,0.58-1.42,0.87-2.14c-1.82,4.44-4.18,8.62-7.05,12.47c0.46-0.61,0.91-1.21,1.37-1.82
				c-2.74,3.62-5.89,6.9-9.44,9.74c0.59-0.47,1.19-0.94,1.78-1.41c-3.48,2.74-7.27,5.01-11.32,6.81c0.7-0.31,1.41-0.62,2.11-0.92
				c-4.48,1.94-9.17,3.27-14,4c0.79-0.12,1.57-0.23,2.36-0.35c-4.96,0.71-9.98,0.78-14.95,0.18c0.79,0.1,1.58,0.19,2.37,0.29
				c-4.58-0.59-9.04-1.73-13.32-3.46c0.71,0.29,1.42,0.58,2.14,0.87c-0.24-0.1-0.49-0.2-0.73-0.3c-2.29-0.96-4.38-1.53-6.87-0.81
				c-2.06,0.59-4.27,2.22-5.26,4.16c-1.06,2.08-1.58,4.59-0.81,6.87C341.65,272.25,343.03,274.59,345.11,275.47L345.11,275.47z"/>
			<path class="st3" d="M370.36,282.14c-8.58-0.02-17.25-1.85-25.77-5.45c-3-1.27-4.43-4.67-4.9-6.07c-0.81-2.4-0.5-5.21,0.89-7.9
				c1.1-2.16,3.55-4.1,6.08-4.83c2.24-0.65,4.21-0.38,6.01,0.2c0.11,0.01,0.22,0.04,0.32,0.09c3.79,1.53,7.81,2.62,11.96,3.23
				c4,0.38,8.06,0.33,12.08-0.16c3.92-0.68,7.74-1.77,11.37-3.25c3.23-1.51,6.27-3.34,9.08-5.45c2.77-2.32,5.33-4.95,7.62-7.85
				c2.27-3.18,4.21-6.6,5.78-10.2c1.4-3.68,2.39-7.48,2.96-11.31c0.2-2.05,0.27-4.11,0.22-6.14c-0.12-5.49,4.29-10.04,10.04-10.38
				c2.5-0.16,4.98,0.78,6.96,2.61c2.14,1.97,3.4,4.7,3.46,7.48c0.2,9.03-1.71,18.28-5.68,27.51c-3,6.97-7.52,13.62-13.06,19.23
				c-5.88,5.95-13.13,10.7-21.57,14.14c-7.24,2.95-15.43,4.51-23.72,4.51C370.45,282.14,370.41,282.14,370.36,282.14z
				 M424.25,209.34c-4.31,0.25-7.61,3.61-7.52,7.65c0.04,1.62,0,3.26-0.11,4.9c0.03,0.15,0.04,0.31,0.03,0.47l-0.26,2.14l-0.03,0.23
				c-0.02,0.16-0.07,0.32-0.14,0.46c-0.53,2.97-1.3,5.91-2.3,8.79c-0.01,0.15-0.04,0.3-0.1,0.44l-0.87,2.14
				c-0.06,0.14-0.13,0.26-0.23,0.37c-1.3,2.8-2.83,5.49-4.55,8.05c-0.04,0.14-0.11,0.28-0.21,0.4l-1.37,1.82
				c-0.09,0.12-0.2,0.22-0.31,0.3c-1.82,2.19-3.8,4.23-5.9,6.1c-0.08,0.13-0.18,0.25-0.31,0.35l-1.78,1.41
				c-0.12,0.1-0.26,0.17-0.4,0.22c-2.19,1.55-4.51,2.95-6.93,4.17c-0.11,0.11-0.24,0.2-0.39,0.26l-2.11,0.92
				c-0.14,0.06-0.29,0.1-0.44,0.11c-2.91,1.1-5.91,1.96-8.99,2.57c-0.13,0.07-0.28,0.12-0.43,0.14l-2.36,0.35
				c-0.16,0.02-0.31,0.02-0.46-0.01c-3.23,0.31-6.47,0.34-9.69,0.11c-0.14,0.03-0.29,0.03-0.43,0.02c0,0-2.36-0.29-2.37-0.29
				c-0.17-0.02-0.33-0.07-0.47-0.15c-2.82-0.51-5.57-1.22-8.24-2.14c-0.15-0.01-0.3-0.04-0.45-0.1l-1.65-0.67
				c-1.76-0.65-3.3-0.91-5.07-0.39c-1.81,0.52-3.68,1.99-4.45,3.48c-0.61,1.19-1.51,3.52-0.73,5.83c0.75,2.21,2.02,3.87,3.41,4.46
				c8.3,3.5,16.39,5.22,24.73,5.23c8.01,0.03,15.88-1.47,22.84-4.31c8.1-3.3,15.06-7.86,20.68-13.55
				c5.31-5.37,9.64-11.74,12.51-18.41c3.82-8.87,5.65-17.75,5.46-26.39c-0.05-2.03-1.02-4.11-2.6-5.58
				c-1.34-1.24-2.98-1.91-4.64-1.91C424.49,209.33,424.37,209.33,424.25,209.34z"/>
		</g>
	</g>
	<g>
		<g>
			<path class="st2" d="M413.18,214.07l0.14,0.03c0.07,0.02,0.15,0.03,0.22,0.04c1.6,0.24,3.23,0.08,4.84-0.08
				c1.19-0.12,2.32-0.22,3.45-0.18c1.39,0.05,2.75,0.34,4.24,0.66c0.85,0.18,1.82,0.39,2.8,0.54c1.64,0.24,3.15,0.2,4.49-0.11
				c0.07-0.02,0.14,0,0.19,0.04c0.05,0.04,0.08,0.11,0.08,0.26c0.21,2.11-1.48,3.74-2.99,4.49c-1.83,0.91-3.83,1.08-6.06,1.2
				c-0.36,0.02-0.71,0.03-1.06,0.03c-3.51,0-6.31-0.98-8.53-2.97c-0.86-0.77-1.91-2.04-2.06-3.7c-0.01-0.07,0.02-0.14,0.07-0.19
				C413.04,214.07,413.11,214.05,413.18,214.07z"/>
			<path class="st2" d="M398.1,189.38c0.44-1.26,1.75-2.03,3.57-2.13c0.07,0,0.14-0.01,0.2-0.01c3.61,0,7.4,4.91,8.88,7.06
				c0.16,0.22,0.42,0.34,0.69,0.28c0.27-0.05,0.48-0.25,0.54-0.52c0.05-0.23,0.17-1.73,0.16-1.91c-0.09-2.43-0.48-4.97-0.87-7.46
				c-0.67-4.31-1.36-8.77-0.46-12.86c0.27-1.24,1.12-2.83,2.38-3.56c0.77-0.45,1.6-0.53,2.48-0.26c3.1,0.96,3.37,8.01,3.48,11.02
				l0.42,10.33c0,0.11-0.07,0.21-0.18,0.23c-1,0.2-2.02,0.45-3.02,0.73c-0.22,0.06-0.35,0.19-0.4,0.37
				c-0.06,0.23,0.04,0.52,0.24,0.72c0.11,0.11,0.36,0.28,0.71,0.17c3.21-0.93,6.1-1.3,8.84-1.14c1.19,0.07,2.48,0.23,3.95,0.48
				c0.04,0.01,0.07,0.02,0.1,0.05c0.1,0.08,0.21,0.14,0.33,0.15c0.1,0.01,0.2,0,0.32-0.04c0.03-0.01,0.07-0.01,0.11-0.01
				c1.32,0.25,2.65,0.55,3.93,0.84l0.18,0.04c0.23,0.05,0.42,0,0.55-0.14c0.17-0.18,0.22-0.49,0.14-0.75
				c-0.04-0.14-0.17-0.39-0.52-0.47l-0.42-0.09c-0.64-0.14-1.28-0.29-1.92-0.42c-0.06-0.01-0.11-0.05-0.15-0.11
				c-0.03-0.05-0.04-0.12-0.02-0.18c0.05-0.15,0.09-0.32,0.12-0.5c0.06-0.37,0.13-0.82,0.2-1.31l0.03-0.2
				c0.53-3.52,1.52-10.07,2.97-12.27c0.96-1.45,2.41-2.09,3.86-1.72c1.58,0.42,2.69,1.86,2.81,3.67c0.23,3.41-0.98,6.94-2.16,10.35
				c-0.47,1.37-0.96,2.79-1.35,4.18c-0.78,2.82-0.61,5.68-0.43,8.45c0.21,3.42,0.41,6.65-1.15,9.63c-0.59,1.11-1.17,1.89-1.86,2.44
				c-1.26,1.03-2.92,1.33-4.46,1.33c-0.67,0-1.32-0.06-1.9-0.14c-0.85-0.12-1.72-0.31-2.55-0.49l-0.17-0.04
				c-0.86-0.19-1.75-0.38-2.64-0.51c-0.65-0.1-1.24-0.16-1.82-0.18c-1.21-0.05-2.43,0.07-3.64,0.19c-2.08,0.2-4.04,0.4-5.86-0.25
				c-1.87-0.67-2.57-2.66-3.32-4.78l-0.03-0.09c-0.13-0.37-0.26-0.74-0.4-1.1c-0.45-1.18-0.76-2.48-0.99-4.09
				c-0.26-1.88-1.27-3.56-2.77-4.58c-1.59-1.08-4.2-3.31-5.48-4.46C398.15,192.22,397.64,190.67,398.1,189.38z"/>
		</g>
		<path class="st3" d="M398.17,194.69c1.36,1.23,3.99,3.47,5.64,4.59c1.1,0.75,1.83,1.97,2.02,3.35c0.24,1.75,0.59,3.18,1.09,4.49
			c0.13,0.34,0.25,0.68,0.37,1.03l0.05,0.13c0.74,2.11,1.58,4.5,3.8,5.62c0,2.31,1.35,4.65,3.63,6.28c0.67,0.48,1.38,0.9,2.1,1.26
			c1.17,0.58,2.39,0.98,3.61,1.18c0.94,0.15,1.9,0.21,2.84,0.21c1.26,0,2.49-0.1,3.62-0.22c0.77-0.08,1.56-0.23,2.34-0.46
			c4.18-1.19,6.48-3.84,6.15-7.09c-0.01-0.12-0.04-0.23-0.08-0.33c0.46-0.23,0.86-0.49,1.21-0.78c0.88-0.71,1.61-1.67,2.32-3
			c1.8-3.42,1.58-7.06,1.36-10.59c-0.16-2.62-0.33-5.32,0.37-7.85c0.37-1.33,0.83-2.66,1.32-4.07c1.24-3.59,2.52-7.3,2.26-11.07
			c-0.18-2.57-1.85-4.7-4.16-5.31c-2.22-0.58-4.46,0.37-5.84,2.48c-0.4,0.61-0.78,1.47-1.15,2.6c0.16-5.47-0.69-9.21-2.56-11.16
			c-1.26-1.31-2.92-1.85-4.95-1.6c-1.88,0.23-3.6,1.74-4.37,3.83c-0.64,1.74-0.61,3.59-0.59,5.22l0,0.22
			c-0.49-3.27-1.62-6.5-4.34-7.35c-1.37-0.42-2.72-0.28-3.94,0.43c-1.86,1.08-2.89,3.16-3.25,4.74c-0.98,4.43-0.26,9.06,0.44,13.53
			c0.31,1.97,0.59,3.82,0.75,5.62c-3.01-3.58-5.92-5.31-8.66-5.17c-2.59,0.14-4.48,1.36-5.19,3.34
			C395.68,190.76,396.38,193.08,398.17,194.69z M429.45,188.48l-0.09,0.55c-1.37-0.22-2.6-0.35-3.73-0.4
			c-0.91-0.04-1.83-0.02-2.81,0.05c0.22-1.09,0.2-2.19,0.19-3.17l-0.17-12.13c-0.02-1.51-0.04-3.06,0.45-4.41
			c0.36-0.99,1.24-2.21,2.52-2.37c0.22-0.03,0.44-0.04,0.64-0.04c0.99,0,1.78,0.32,2.4,0.96
			C432.3,171.14,430.3,183.29,429.45,188.48z M413.4,214.57c1.72,0.26,3.39,0.1,5-0.06c1.2-0.12,2.32-0.23,3.41-0.19
			c1.36,0.05,2.69,0.34,4.1,0.64c0.92,0.2,1.9,0.41,2.89,0.55c1.59,0.23,3.07,0.21,4.39-0.06c0.1,1.82-1.41,3.23-2.76,3.9
			c-1.76,0.87-3.71,1.04-5.89,1.15c-3.89,0.21-6.93-0.72-9.27-2.83C414.53,217.01,413.63,215.94,413.4,214.57z M398.52,189.53
			c0.38-1.08,1.54-1.75,3.17-1.83c3.44-0.17,7.23,4.74,8.69,6.86c0.26,0.37,0.71,0.55,1.14,0.47c0.44-0.08,0.79-0.42,0.89-0.85
			c0.06-0.26,0.18-1.81,0.17-2.03c-0.09-2.45-0.48-5.01-0.87-7.48c-0.67-4.3-1.35-8.72-0.47-12.72c0.25-1.15,1.02-2.61,2.17-3.28
			c0.65-0.38,1.37-0.46,2.13-0.22c2.8,0.87,3.06,7.69,3.17,10.6l0.41,10.14c-0.95,0.19-1.92,0.43-2.87,0.71
			c-0.37,0.11-0.62,0.35-0.71,0.69c-0.1,0.39,0.05,0.84,0.36,1.14c0.31,0.3,0.73,0.4,1.14,0.28c3.16-0.91,6-1.28,8.69-1.12
			c1.16,0.07,2.41,0.22,3.84,0.47c0.15,0.11,0.32,0.19,0.51,0.22c0.15,0.02,0.3,0.01,0.47-0.04c1.29,0.25,2.6,0.54,3.87,0.82
			l0.18,0.04c0.38,0.09,0.73-0.01,0.98-0.28c0.28-0.3,0.37-0.77,0.24-1.18c-0.12-0.4-0.43-0.68-0.85-0.77l-0.42-0.09
			c-0.56-0.13-1.13-0.25-1.7-0.38c0.03-0.1,0.05-0.22,0.07-0.33c0.06-0.37,0.13-0.82,0.2-1.32l0.03-0.2
			c0.53-3.49,1.51-9.98,2.9-12.09c0.69-1.05,1.66-1.62,2.67-1.62c0.23,0,0.47,0.03,0.7,0.09c1.39,0.37,2.37,1.65,2.48,3.27
			c0.23,3.32-0.98,6.8-2.14,10.18c-0.48,1.38-0.97,2.8-1.36,4.21c-0.8,2.89-0.62,5.79-0.45,8.59c0.21,3.36,0.4,6.53-1.1,9.4
			c-0.56,1.05-1.11,1.79-1.74,2.3c-1.69,1.37-4.2,1.35-6.01,1.1c-0.83-0.12-1.69-0.3-2.52-0.48l-0.15-0.03
			c-0.88-0.19-1.78-0.38-2.69-0.52c-0.67-0.1-1.28-0.16-1.87-0.18c-1.24-0.05-2.48,0.07-3.68,0.19c-2.05,0.2-3.96,0.39-5.69-0.22
			c-1.67-0.59-2.34-2.49-3.05-4.5l-0.03-0.09c-0.13-0.37-0.26-0.75-0.4-1.11c-0.44-1.14-0.74-2.41-0.96-3.99
			c-0.28-2.01-1.36-3.79-2.96-4.89c-1.57-1.07-4.17-3.28-5.43-4.42C398.58,192.01,398.12,190.65,398.52,189.53z"/>
	</g>
	<path class="st2" d="M429,167.38c-0.8-0.83-1.86-1.16-3.23-0.99c-1.38,0.17-2.32,1.46-2.7,2.51c-0.51,1.39-0.49,2.97-0.47,4.49
		l0.17,12.13c0.02,1.07,0.03,2.26-0.25,3.41c1.02-0.09,2.05-0.12,3.08-0.07c1.32,0.05,2.63,0.22,3.93,0.43
		c0.04-0.24,0.08-0.5,0.13-0.77C430.53,183.29,432.54,171.07,429,167.38z"/>
</g>
<g>
	<g>
		<g>
			<path class="st2" d="M111.97,324.87c-6.31-4.9-10.91-0.78-18.86-0.01c-0.62,0.06-1.24,0.09-1.86,0.1
				c-4.05,0.05-9.05-1.15-13.06-1.7c-1.42-0.19-2.97-0.31-4.02,1.06c-0.8,1.06-0.85,2.49-0.31,3.7c0.85,1.91,3.41,3.25,5.2,4.09
				c-1.43-0.26-4.73,0.66-5.55,1.87c-0.82,1.2-0.5,2.87,0.27,4.1c0.4,0.65,1,1.16,1.61,1.62c2.4,1.77,4.28,2.25,7.27,2.39
				c-2.09,0.13-3.16,2.91-2.32,4.82c0.84,1.92,2.85,3.03,4.81,3.76c7.28,2.72,17.23,2.67,25.7,1.58c2.88-0.37,6.4,1.13,7.53,3.8
				c0.07,0.16,0.14,0.32,0.2,0.47c1.27,2.91,1.69,7.68,4.23,9.94c1.94,1.72,7.27,4.99,8.96,1.35c0.33-0.71,0.38-1.51,0.25-2.27
				c-0.55-3.17-2.52-6.74-3.13-9.88c-0.5-2.56-0.7-5.51-0.75-8.12c-0.04-2.61-0.45-5.35-2.04-7.42c-2.3-2.99-5.15-4.74-8.13-7.05
				C117.15,332.42,112.89,325.58,111.97,324.87z"/>
			<path class="st3" d="M121.96,367.45c-2-1.77-2.81-4.68-3.54-7.25c-0.33-1.17-0.64-2.27-1.03-3.15l-0.21-0.48
				c-0.92-2.16-3.93-3.3-6.17-3.01c-6.09,0.78-17.6,1.61-26.32-1.65c-2.91-1.1-4.71-2.54-5.55-4.46c-0.6-1.36-0.51-3.07,0.21-4.43
				c-1.59-0.36-3.05-1.01-4.74-2.26c-0.62-0.46-1.4-1.09-1.95-1.98c-1.16-1.86-1.25-4.03-0.24-5.52c0.53-0.78,1.58-1.41,2.74-1.83
				c-1.08-0.78-2-1.72-2.51-2.86c-0.76-1.72-0.59-3.64,0.46-5.02c1.57-2.07,3.95-1.74,5.23-1.57c1.24,0.17,2.58,0.4,3.95,0.64
				c3.06,0.53,6.22,1.08,8.91,1.05c0.58-0.01,1.17-0.04,1.75-0.1c2.35-0.23,4.38-0.76,6.34-1.27c4.41-1.15,8.57-2.24,13.44,1.55
				c0.57,0.44,1.46,1.71,3.37,4.51c0.98,1.43,2.31,3.38,2.65,3.7c0.63,0.48,1.25,0.94,1.86,1.4c2.36,1.74,4.58,3.39,6.51,5.89
				c1.99,2.59,2.27,5.92,2.31,8.2c0.03,2.08,0.19,5.14,0.72,7.89c0.27,1.42,0.86,2.95,1.47,4.57c0.67,1.76,1.36,3.58,1.66,5.33
				c0.19,1.09,0.06,2.14-0.35,3.04c-0.58,1.25-1.55,2.05-2.82,2.31c-1.18,0.25-2.5-0.01-3.75-0.5
				C124.58,369.46,122.89,368.27,121.96,367.45z M99.99,324.81c-1.97,0.51-4.2,1.09-6.75,1.34c-0.65,0.06-1.31,0.1-1.97,0.11
				c-2.93,0.04-6.21-0.53-9.39-1.08c-1.34-0.23-2.64-0.46-3.86-0.63c-1.43-0.2-2.25-0.16-2.8,0.56c-0.47,0.62-0.53,1.54-0.16,2.39
				c0.74,1.66,3.62,2.99,4.56,3.43c0.6,0.28,0.89,0.95,0.69,1.58c-0.2,0.62-0.83,1-1.48,0.89c-1.05-0.19-3.79,0.66-4.24,1.32
				c-0.49,0.73-0.21,1.87,0.3,2.68c0.32,0.51,0.85,0.94,1.28,1.26c2.24,1.66,3.9,2.01,6.56,2.14c0.7,0.03,1.23,0.6,1.24,1.29
				c0,0.69-0.53,1.27-1.22,1.31c-0.5,0.03-0.83,0.4-1.01,0.71c-0.41,0.68-0.49,1.62-0.2,2.3c0.54,1.24,1.89,2.24,4.07,3.07
				c8.2,3.07,19.23,2.26,25.08,1.51c3.24-0.42,7.45,1.18,8.9,4.57l0.2,0.46c0.46,1.04,0.79,2.22,1.14,3.48
				c0.66,2.33,1.34,4.74,2.76,6c1.43,1.26,4.29,2.97,5.92,2.63c0.31-0.06,0.69-0.22,0.99-0.86c0.25-0.53,0.22-1.11,0.15-1.5
				c-0.26-1.51-0.91-3.21-1.53-4.86c-0.63-1.65-1.27-3.37-1.59-5c-0.57-2.93-0.73-6.16-0.77-8.34c-0.05-3.03-0.61-5.15-1.77-6.65
				c-1.7-2.21-3.79-3.75-5.99-5.38c-0.62-0.46-1.26-0.93-1.9-1.43c-0.53-0.41-1.34-1.56-3.21-4.29c-0.97-1.42-2.44-3.56-2.84-3.93
				C107.31,322.9,104.24,323.7,99.99,324.81z"/>
		</g>
		<g>
			<path class="st3" d="M81.1,343.19c0.13,0.05,0.26,0.08,0.41,0.09c5.82,0.29,12.6,0.11,18.49-0.09c0.72-0.02,1.28-0.63,1.26-1.35
				c-0.02-0.72-0.62-1.28-1.35-1.26c-5.84,0.2-12.55,0.39-18.27,0.09c-0.72-0.04-1.33,0.52-1.37,1.24
				C80.24,342.49,80.59,343,81.1,343.19z"/>
		</g>
		<g>
			<path class="st3" d="M77.47,333.15c0.09,0.03,0.18,0.06,0.28,0.07c4.98,0.76,11.4,0.63,17.02,0.4c0.72-0.03,1.28-0.64,1.25-1.35
				c-0.03-0.72-0.63-1.28-1.35-1.25c-5.5,0.22-11.76,0.35-16.52-0.37c-0.71-0.11-1.38,0.38-1.48,1.09
				C76.57,332.36,76.92,332.93,77.47,333.15z"/>
		</g>
		<g>
			<path class="st2" d="M109.47,317.55c5.22-0.69,10.88,3.25,14.36,6.76c2.58,2.6,4.94,6.55,5.14,10.27c0.26,5-4.29,6.14-8.37,5.18
				c-6.21-1.46-13.39-6.94-15.72-13.01C103.27,322.55,104.57,318.2,109.47,317.55z"/>
			<path class="st3" d="M103.67,327.22c-1.07-2.8-0.98-5.6,0.25-7.67c0.76-1.28,2.31-2.88,5.38-3.29
				c6.88-0.91,13.57,5.23,15.46,7.14c2.52,2.54,5.29,6.8,5.51,11.12c0.14,2.81-1.04,4.42-2.06,5.26c-1.82,1.52-4.78,1.99-7.91,1.25
				c-0.85-0.2-1.73-0.48-2.62-0.83C112.1,338.03,105.93,333.09,103.67,327.22z M109.64,318.85c-1.63,0.22-2.8,0.9-3.48,2.03
				c-0.82,1.39-0.85,3.36-0.06,5.41c2.03,5.29,8.67,10.76,14.8,12.21c2.31,0.54,4.47,0.27,5.64-0.71c0.82-0.68,1.19-1.73,1.12-3.13
				c-0.18-3.6-2.68-7.33-4.76-9.42c-2.19-2.21-5.13-4.43-8.14-5.6C113.04,318.96,111.29,318.63,109.64,318.85z"/>
		</g>
	</g>
	<g>
		<g>
			<g>
				<path class="st4" d="M191.32,278.14c-16.32,16.48-34.41,31.18-53.79,44.21c-5.36,3.61-8.98,5.78-14.54,9.1
					c-1.64,0.98-4.05,2.11-5.92,1.57c-1.96-0.57-4.1-2.11-5.06-3.93c-2.16-4.07-2.53-7.62,1.97-10.73
					c7.3-5.03,13.91-8.97,21.1-14.01c-0.55,0.39-1.11,0.78-1.66,1.17c12.97-9.12,25.29-19.08,36.83-29.84
					c3.23-3.02,6.4-6.1,9.51-9.23c2.87-2.9,8.59-2.66,11.49,0.53C194.35,270.38,194.4,275.03,191.32,278.14L191.32,278.14z"/>
				<path class="st3" d="M110.87,329.71c-1.79-3.38-3.5-8.35,2.38-12.41c3.45-2.38,6.79-4.55,10.02-6.64
					c3.35-2.17,6.8-4.4,10.32-6.85c12.66-8.96,24.69-18.74,35.77-29.08c3.17-2.96,6.36-6.05,9.47-9.2c1.57-1.59,3.93-2.47,6.48-2.41
					c2.72,0.06,5.23,1.15,6.9,2.98c3.56,3.92,3.57,9.37,0.02,12.95c-15.87,16.02-34.04,30.95-53.98,44.38
					c-5.51,3.71-9.32,5.98-14.6,9.14c-2.78,1.66-5.12,2.23-6.95,1.7c-0.25-0.07-0.51-0.16-0.76-0.26
					C113.81,333.18,111.83,331.52,110.87,329.71z M190.4,277.22c2.58-2.61,2.54-6.46-0.09-9.36c-1.17-1.29-3.05-2.08-5.03-2.13
					c-1.83-0.04-3.5,0.56-4.57,1.64c-3.14,3.17-6.35,6.29-9.55,9.27c-10.92,10.18-22.75,19.83-35.19,28.69
					c-0.04,0.03-0.07,0.06-0.12,0.09c0,0-1.66,1.17-1.66,1.17c-0.05,0.04-0.1,0.07-0.16,0.09c-3.19,2.19-6.3,4.2-9.33,6.17
					c-3.21,2.08-6.54,4.23-9.96,6.59c-3.39,2.34-3.82,4.79-1.56,9.04c0.74,1.4,2.53,2.78,4.27,3.28c1.08,0.31,2.81-0.2,4.88-1.44
					c5.24-3.13,9.03-5.39,14.48-9.06C156.61,307.95,174.64,293.13,190.4,277.22L190.4,277.22z"/>
			</g>
		</g>
	</g>
</g>
<path class="st5" d="M367.08,250.55l13.83-78.64c8.29-47.22-23.37-92.39-70.58-100.71c-0.01,0-0.01,0-0.02,0
	c-22.87-4.02-45.95,1.1-64.97,14.43c-19.03,13.33-31.73,33.27-35.76,56.16l-2.02,11.49l36.82,6.48l2.02-11.48
	c2.3-13.05,9.54-24.42,20.39-32.02c10.85-7.6,24-10.52,37.05-8.23c0,0,0.01,0,0.01,0c26.92,4.74,44.98,30.5,40.25,57.43l-7.62,43.31
	c-13.09-10.68-29-18.27-46.8-21.4c-55.55-9.77-108.69,27.47-118.45,83.02c-9.77,55.55,27.47,108.68,83.02,118.45
	c55.55,9.77,108.68-27.47,118.45-83.02C376.09,286.52,373.82,267.54,367.08,250.55z"/>
<g id="Ebene_2">
	<circle class="st1" cx="274.84" cy="288.25" r="36.52"/>
</g>
<g class="st6">
	<path class="st7" d="M262.86,169.89c7.93-2.28,17.05,5.17,20.34,16.6c3.29,11.44-0.48,22.59-8.41,24.87
		c-7.93,2.28-17.05-5.17-20.34-16.61C251.16,183.33,254.94,172.17,262.86,169.89z"/>
	<path class="st7" d="M212.18,184.47c7.93-2.28,17.05,5.17,20.34,16.6c3.29,11.44-0.48,22.59-8.41,24.87
		c-7.93,2.28-17.05-5.17-20.34-16.61C200.48,197.91,204.25,186.75,212.18,184.47z"/>
	<g class="st8">
		<path class="st3" d="M262.8,156.49c-3.62-0.67-7.59,0.3-10.45,2.64c-0.6,0.49-1.43,0.63-2.04,0.05c-0.51-0.49-0.65-1.54-0.05-2.04
			c3.71-3.05,8.51-4.33,13.24-3.45c0.77,0.14,1.22,1.03,1.04,1.75C264.35,156.24,263.57,156.63,262.8,156.49z"/>
		<path class="st3" d="M252.09,195.45c3.66,12.74,14.16,20.95,23.39,18.29c9.23-2.66,13.76-15.18,10.1-27.92
			c-1.96-6.81-5.87-12.3-10.49-15.55c1.61-1.54,3.03-3.25,4.26-5.11c0.44-0.67,0.06-1.58-0.56-1.96c-0.7-0.43-1.54-0.06-1.96,0.56
			c-0.16,0.24-0.33,0.49-0.49,0.72c-0.04,0.06-0.08,0.11-0.12,0.17c-0.11,0.15-0.11,0.12,0.01-0.01c-0.09,0.1-0.16,0.22-0.25,0.33
			c-0.33,0.44-0.68,0.87-1.04,1.28c-0.74,0.86-1.53,1.68-2.39,2.46c-2.82-1.4-5.8-1.99-8.71-1.55c-0.33-2.01-0.84-3.99-1.59-5.9
			c-0.3-0.75-0.96-1.18-1.78-0.99c-0.71,0.17-1.26,1.08-0.99,1.78c0.41,1.05,0.77,2.13,1.05,3.22c0.14,0.54,0.26,1.08,0.37,1.62
			c0.06,0.28,0.11,0.57,0.15,0.85c0,0.02,0.01,0.09,0.03,0.17c-3.03,1.19-5.5,3.47-7.28,6.48c-0.04-0.03-0.09-0.06-0.13-0.1
			c-0.11-0.09-0.23-0.17-0.34-0.26c-0.22-0.17-0.45-0.35-0.66-0.53c-0.44-0.36-0.86-0.74-1.28-1.12c-0.83-0.78-1.61-1.6-2.34-2.47
			c-0.52-0.62-1.53-0.44-2.04,0.05c-0.25,0.24-0.4,0.66-0.4,1.01c0,0.42,0.19,0.72,0.45,1.03c1.57,1.87,3.37,3.49,5.34,4.92
			c0.06,0.04,0.13,0.04,0.19,0.07C250.52,182.17,250.17,188.77,252.09,195.45z M254.45,194.77c-3.29-11.44,0.48-22.59,8.41-24.87
			c0.55-0.16,1.1-0.26,1.65-0.32c-2.73,5.37-3.4,12.72-1.26,20.19l11.98,0.05l-8.3,8.25c3.34,5.33,7.99,9.01,12.84,10.2
			c-1.39,1.47-3.06,2.55-4.98,3.1C266.87,213.65,257.74,206.2,254.45,194.77z"/>
		<path class="st3" d="M201.64,209.95c3.66,12.74,14.16,20.95,23.39,18.29c9.23-2.65,13.76-15.18,10.09-27.92
			c-1.96-6.81-5.87-12.3-10.49-15.55c1.61-1.54,3.03-3.25,4.26-5.11c0.44-0.67,0.06-1.58-0.56-1.96c-0.7-0.43-1.54-0.06-1.96,0.56
			c-0.16,0.24-0.33,0.49-0.49,0.72c-0.04,0.06-0.08,0.11-0.12,0.17c-0.11,0.15-0.11,0.12,0.01-0.01c-0.09,0.1-0.16,0.22-0.25,0.33
			c-0.33,0.44-0.68,0.87-1.04,1.28c-0.74,0.86-1.53,1.68-2.38,2.46c-2.82-1.4-5.8-1.99-8.7-1.55c-0.33-2.01-0.84-3.99-1.59-5.9
			c-0.3-0.75-0.96-1.18-1.78-0.99c-0.71,0.17-1.26,1.08-0.99,1.78c0.41,1.05,0.77,2.13,1.05,3.22c0.14,0.54,0.26,1.08,0.37,1.62
			c0.06,0.28,0.11,0.57,0.15,0.85c0,0.02,0.01,0.09,0.03,0.17c-3.03,1.19-5.5,3.47-7.28,6.48c-0.04-0.03-0.09-0.06-0.13-0.1
			c-0.11-0.09-0.23-0.17-0.34-0.26c-0.22-0.17-0.45-0.35-0.66-0.53c-0.44-0.36-0.86-0.74-1.28-1.12c-0.83-0.78-1.61-1.6-2.34-2.47
			c-0.52-0.62-1.53-0.44-2.04,0.05c-0.25,0.24-0.4,0.66-0.4,1.01c0,0.42,0.19,0.72,0.45,1.03c1.57,1.87,3.37,3.49,5.34,4.92
			c0.06,0.04,0.13,0.04,0.19,0.07C200.07,196.68,199.72,203.28,201.64,209.95z M204.01,209.27c-3.29-11.44,0.48-22.59,8.41-24.87
			c0.54-0.16,1.1-0.26,1.65-0.32c-2.73,5.37-3.4,12.72-1.26,20.19l11.98,0.05l-8.3,8.25c3.34,5.33,7.99,9.01,12.84,10.2
			c-1.39,1.47-3.06,2.55-4.98,3.1C216.42,228.16,207.3,220.71,204.01,209.27z"/>
		<path class="st3" d="M212.35,171c-3.62-0.67-7.59,0.3-10.45,2.64c-0.6,0.49-1.43,0.63-2.04,0.05c-0.51-0.49-0.65-1.54-0.05-2.04
			c3.71-3.05,8.51-4.33,13.24-3.45c0.76,0.14,1.22,1.03,1.04,1.75C213.9,170.75,213.12,171.14,212.35,171z"/>
		<path class="st3" d="M253.17,212.49c-0.79-2.73-3.65-4.31-6.38-3.53c-2.73,0.79-4.32,3.65-3.53,6.38
			c0.79,2.73,3.65,4.32,6.38,3.53C252.37,218.08,253.96,215.22,253.17,212.49z M250.81,213.17c0.41,1.43-0.42,2.92-1.84,3.33
			c-1.43,0.41-2.92-0.42-3.33-1.84c-0.41-1.43,0.42-2.92,1.84-3.33C248.9,210.92,250.39,211.74,250.81,213.17z"/>
		<path class="st3" d="M237.4,223.11c4.29,3.22,10.03,2.6,14.77,0.83c4.07-1.52,8.69-4.05,9.94-8.54c0.45-1.61,2.98-0.98,2.53,0.64
			c-1.52,5.46-6.76,8.54-11.74,10.4c-5.73,2.14-12.22,2.35-17.29-1.45C234.26,223.99,236.07,222.12,237.4,223.11z"/>
		<path class="st3" d="M249.45,229.3c1.26-0.36,2.53-0.73,3.79-1.09c0.66-0.19,1.45,0.21,1.61,0.89c0.16,0.69-0.19,1.41-0.89,1.61
			c-1.26,0.36-2.53,0.73-3.79,1.09c-0.66,0.19-1.45-0.21-1.61-0.89C248.39,230.23,248.75,229.5,249.45,229.3z"/>
	</g>
</g>
<path id="SVGID_x5F_1_x5F_" class="st9" d="M372.76,69.77c90.63,76.21,102.32,211.45,26.12,302.08S187.42,474.18,96.8,397.97
	S-5.52,186.52,70.68,95.89S282.13-6.43,372.76,69.77z"/>
<text class="st6"><textPath  xlink:href="#SVGID_x5F_1_x5F_" startOffset="13414.4209%"  class="st8">
<tspan  class="st10" style="font-family:'BerlinSansFBDemi-Bold'; font-size:51.9152px; letter-spacing:17;">OPEN ACCESS HERO</tspan></textPath>
</text>
<g>
	<path class="st10" d="M45.52,231.87c5.25-0.45,9.8,0.85,13.64,3.9c3.9,3.11,6.06,7.29,6.51,12.52c0.44,5.2-1.01,9.68-4.35,13.42
		c-3.27,3.67-7.51,5.73-12.73,6.17c-5.24,0.45-9.78-0.86-13.64-3.93c-3.95-3.12-6.14-7.29-6.58-12.49
		c-0.44-5.17,1.02-9.64,4.38-13.4C36.06,234.38,40.32,232.31,45.52,231.87z M46.28,241.45c-2.53,0.22-4.61,1.16-6.25,2.85
		c-1.72,1.76-2.47,3.88-2.26,6.37c0.2,2.37,1.33,4.3,3.39,5.79c1.99,1.44,4.19,2.06,6.59,1.86c2.58-0.22,4.66-1.15,6.25-2.8
		c1.67-1.74,2.39-3.88,2.18-6.42c-0.2-2.37-1.33-4.31-3.37-5.82C50.87,241.85,48.69,241.24,46.28,241.45z"/>
	<path class="st10" d="M45.15,196.15c4.06,0.46,7.23,1.91,9.51,4.33c2.41,2.59,3.38,5.89,2.93,9.9c-0.08,0.67-0.23,1.68-0.46,3.02
		c-0.23,1.34-0.38,2.35-0.46,3.02c-0.08,0.72,0.19,1.12,0.81,1.19c0.77,0.09,1.93,0.14,3.48,0.17c1.54,0.02,2.69,0.08,3.45,0.16
		c0.39,0.04,0.56,0.24,0.52,0.59c-0.12,1.02-0.32,2.56-0.61,4.6c-0.29,2.04-0.5,3.58-0.61,4.6c-0.05,0.49-0.33,0.7-0.81,0.65
		c-1.86-0.21-4.66-0.56-8.39-1.05c-3.73-0.48-6.53-0.83-8.39-1.05c-5.27-0.6-10.84-1.01-16.7-1.22l-0.36-0.01
		c-0.32,0-0.49-0.28-0.49-0.82c-0.02-1.33,0.23-4.23,0.74-8.69c0.3-2.64,0.62-5.16,0.97-7.57c0.57-3.97,2.19-7.03,4.85-9.19
		C37.83,196.57,41.18,195.69,45.15,196.15z M44.4,206.24c-3.91-0.45-6.09,1.24-6.52,5.05c-0.31,2.69-0.32,4.11-0.03,4.28
		c0.2,0.14,2.14,0.42,5.8,0.84c0.52,0.06,1.29,0.13,2.31,0.2c1.02,0.07,1.79,0.14,2.31,0.2c0.33,0.04,0.68-1.45,1.02-4.48
		C49.71,208.69,48.08,206.66,44.4,206.24z"/>
	<path class="st10" d="M67.43,169.99c0.7,0.21,1.94,0.72,3.72,1.55c1.94,0.89,3.07,1.51,3.39,1.85c0.25,0.29,0.33,0.6,0.22,0.94
		c-0.04,0.15-0.14,0.38-0.29,0.71c-0.51,1.14-1.61,4.56-3.31,10.28c-0.37,1.25-0.93,3.1-1.67,5.56c-0.75,2.46-1.3,4.3-1.67,5.53
		c-0.16,0.54-0.47,0.73-0.94,0.59c-1.81-0.54-4.51-1.45-8.09-2.73c-3.58-1.28-6.27-2.19-8.09-2.73c-1.85-0.55-5.32-1.47-10.42-2.77
		c-1.31-0.33-3.27-0.82-5.89-1.45l-0.35-0.08c-0.38-0.08-0.51-0.34-0.38-0.77c0.35-1.2,0.92-2.99,1.7-5.38
		c0.78-2.39,1.34-4.18,1.7-5.38c0.35-1.18,0.85-2.98,1.49-5.38c0.64-2.4,1.14-4.19,1.49-5.38c0.25-0.84,0.71-1.23,1.38-1.18
		c0.4,0.03,1.56,0.24,3.5,0.63c1.94,0.39,3.11,0.64,3.51,0.76c0.34,0.1,0.46,0.31,0.37,0.64c-0.03,0.1-0.09,0.27-0.17,0.5
		c-1.63,4.21-2.96,8.03-3.98,11.46c-0.25,0.86-0.21,1.45,0.14,1.76c0.17,0.14,0.78,0.36,1.84,0.68c1.1,0.33,1.88,0.38,2.33,0.16
		c0.39-0.18,0.7-0.67,0.93-1.44c0.05-0.16,0.13-0.48,0.24-0.96c0.11-0.48,0.22-0.87,0.31-1.18c0.6-2.04,1.16-4.12,1.67-6.25
		c0.04-0.18,0.13-0.64,0.27-1.37c0.1-0.57,0.19-1.02,0.29-1.34c0.12-0.39,0.36-0.53,0.73-0.42c-0.34-0.1,0.86,0.41,3.59,1.54
		c1.26,0.51,2.54,0.96,3.83,1.35c0.32,0.1,0.42,0.38,0.28,0.85l-0.89,2.12c-0.37,0.89-1.04,2.99-2.02,6.28l-0.76,2.58
		c-0.2,0.67-0.15,1.1,0.14,1.31c0.08,0.04,0.58,0.2,1.5,0.47c1.23,0.37,2.05,0.52,2.45,0.46c0.7-0.09,1.37-1.02,2.02-2.79
		c-0.01,0.03,0.34-1.15,1.05-3.55c0.25-0.86,0.56-2.16,0.9-3.9c0.35-1.74,0.65-3.03,0.9-3.87C66.5,169.91,66.85,169.82,67.43,169.99
		z"/>
	<path class="st10" d="M59.8,124.83c1.71,0.88,4.25,2.28,7.61,4.19c3.36,1.91,5.9,3.31,7.63,4.2l14.85,7.65
		c0.41,0.21,0.5,0.53,0.27,0.97c-0.19,0.36-0.45,0.91-0.8,1.66c-0.35,0.74-0.61,1.3-0.8,1.66c-0.2,0.39-0.53,0.96-1,1.71
		c-0.46,0.75-0.8,1.32-1,1.71c-0.14,0.27-0.55,0.47-1.24,0.59c-2.01,0.33-6.5,1.1-13.45,2.31c-1.93,0.32-4.8,0.83-8.61,1.55
		c-0.12,0.01-0.27,0.08-0.45,0.2c0.04,0.17,0.18,0.32,0.4,0.44c1.74,0.9,4.38,2.2,7.92,3.9c3.54,1.7,6.17,3,7.92,3.9
		c0.53,0.27,0.68,0.61,0.48,1.01l-4.02,7.8c-0.22,0.44-0.57,0.53-1.04,0.29c-1.62-0.84-4.03-2.18-7.22-4.02
		c-3.19-1.85-5.61-3.19-7.25-4.03c-1.73-0.89-4.35-2.15-7.86-3.78c-3.51-1.63-6.13-2.89-7.84-3.77c-0.33-0.17-0.35-0.55-0.04-1.13
		c0.45-0.87,0.94-1.98,1.48-3.31c0.12-0.32,0.33-0.96,0.62-1.93c0.25-0.82,0.49-1.45,0.71-1.88c0.09-0.18,0.49-0.33,1.2-0.44
		l15.85-2.47c1.42-0.22,3.52-0.57,6.3-1.06c0.66-0.14,1.06-0.34,1.2-0.61c0.1-0.2-0.44-0.6-1.61-1.2c-1.58-0.81-4-1.95-7.25-3.41
		s-5.68-2.6-7.28-3.42c-0.56-0.29-0.75-0.59-0.59-0.9c0.46-0.9,1.13-2.28,1.99-4.14c0.86-1.86,1.53-3.24,1.99-4.14
		C59.03,124.62,59.34,124.59,59.8,124.83z"/>
	<path class="st10" d="M122.03,103.66c0.22,0.21,0.23,0.51,0.03,0.9c-0.25,0.46-1.27,1.66-3.08,3.58c-1.65,1.76-2.76,2.85-3.34,3.27
		c-0.48,0.34-1.01,0.34-1.58,0.02c-2.17-1.24-3.42-1.81-3.77-1.69c-0.27,0.12-1.86,1.73-4.77,4.84c-1.96,2.1-2.95,3.26-2.97,3.5
		c0,0.4,0.44,1.25,1.32,2.56c0.8,1.19,1.09,2,0.87,2.41c-0.29,0.51-1.56,1.96-3.8,4.36c-1.77,1.89-2.83,2.66-3.19,2.33
		c-0.32-0.3-2.96-5.38-7.91-15.25c-5.35-10.68-8.3-16.53-8.88-17.56c-0.33-0.59-0.4-0.98-0.22-1.18c0.31-0.33,0.83-0.82,1.54-1.46
		c0.71-0.64,1.23-1.13,1.56-1.48c0.31-0.33,0.75-0.84,1.31-1.53c0.56-0.69,0.99-1.19,1.29-1.51c0.22-0.23,0.62-0.26,1.22-0.08
		c1.86,0.61,7.95,3.01,18.28,7.19C116.34,101.09,121.7,103.35,122.03,103.66z M92.89,100.99c0.3,0.77,1.07,2.31,2.3,4.62
		c1.3,2.47,2.12,3.86,2.45,4.17c0.22,0.21,0.69-0.05,1.41-0.76c0.38-0.36,0.98-0.98,1.8-1.85c0.76-0.81,1.09-1.36,0.97-1.63
		c-0.04-0.08-0.11-0.18-0.22-0.28c-0.41-0.38-1.79-1.15-4.17-2.3C95.14,101.85,93.63,101.2,92.89,100.99z"/>
	<path class="st10" d="M143.66,81.95c0.16,0.22,0.23,0.61,0.2,1.17c-0.33,4.82-2.58,8.75-6.74,11.79c-4.26,3.11-8.77,4.17-13.54,3.2
		c-4.63-0.93-8.51-3.54-11.64-7.82c-3.03-4.15-4.34-8.59-3.92-13.33c0.42-4.95,2.67-8.91,6.74-11.88c4.42-3.23,8.88-4.4,13.38-3.51
		c0.49,0.1,0.82,0.27,0.99,0.5c0.19,0.26,0.42,1.57,0.68,3.93c0.27,2.36,0.35,3.73,0.26,4.11c-0.03,0.19-0.13,0.34-0.29,0.46
		c-0.07,0.05-0.61,0.03-1.62-0.07c-1.22-0.12-2.31-0.1-3.29,0.05c-1.48,0.24-2.8,0.78-3.96,1.63c-2.01,1.46-3.06,3.39-3.17,5.76
		c-0.09,2.2,0.61,4.32,2.11,6.37c1.51,2.08,3.34,3.41,5.47,4.01c2.32,0.65,4.48,0.25,6.49-1.22c1.19-0.87,2.12-1.95,2.81-3.24
		c0.45-0.85,0.81-1.85,1.08-2.99c0.22-0.96,0.37-1.46,0.44-1.51c0.14-0.1,0.33-0.12,0.57-0.07c0.4,0.09,1.61,0.51,3.65,1.26
		C142.44,81.33,143.55,81.8,143.66,81.95z"/>
	<path class="st10" d="M171.98,68.24c0.12,0.24,0.11,0.64-0.01,1.19c-1.19,4.69-4.1,8.15-8.74,10.4c-4.75,2.3-9.38,2.54-13.9,0.73
		c-4.39-1.74-7.74-5-10.06-9.78c-2.24-4.62-2.73-9.23-1.48-13.82c1.3-4.8,4.22-8.29,8.75-10.49c4.93-2.39,9.52-2.74,13.79-1.07
		c0.47,0.19,0.76,0.41,0.89,0.67c0.14,0.29,0.13,1.62-0.03,3.99c-0.16,2.37-0.32,3.73-0.48,4.09c-0.06,0.18-0.19,0.31-0.37,0.4
		c-0.08,0.04-0.6-0.08-1.58-0.36c-1.17-0.33-2.26-0.51-3.25-0.54c-1.5-0.03-2.89,0.27-4.18,0.9c-2.24,1.08-3.62,2.78-4.15,5.11
		c-0.48,2.15-0.17,4.36,0.94,6.64c1.12,2.31,2.67,3.95,4.67,4.92c2.16,1.06,4.36,1.04,6.6-0.04c1.32-0.64,2.44-1.54,3.35-2.69
		c0.59-0.76,1.12-1.67,1.6-2.75c0.39-0.9,0.62-1.37,0.7-1.41c0.15-0.07,0.34-0.06,0.58,0.03c0.38,0.16,1.5,0.79,3.37,1.89
		C170.9,67.41,171.9,68.07,171.98,68.24z"/>
	<path class="st10" d="M198.22,58.57c0.2,0.7,0.43,2.02,0.69,3.97c0.29,2.11,0.38,3.4,0.27,3.85c-0.11,0.36-0.33,0.6-0.67,0.69
		c-0.15,0.04-0.4,0.09-0.75,0.14c-1.23,0.18-4.71,1.1-10.45,2.75c-1.25,0.36-3.11,0.89-5.58,1.58c-2.47,0.7-4.33,1.22-5.56,1.58
		c-0.54,0.15-0.87,0-1.01-0.47c-0.52-1.82-1.21-4.58-2.06-8.28c-0.85-3.7-1.53-6.47-2.06-8.28c-0.53-1.85-1.62-5.27-3.28-10.27
		c-0.42-1.28-1.07-3.2-1.95-5.74l-0.12-0.33c-0.14-0.36,0.01-0.61,0.45-0.74c1.2-0.35,3.02-0.83,5.45-1.46
		c2.43-0.63,4.25-1.12,5.45-1.46c1.18-0.34,2.96-0.89,5.33-1.64c2.37-0.75,4.15-1.3,5.33-1.64c0.84-0.24,1.42-0.07,1.73,0.53
		c0.19,0.35,0.64,1.45,1.36,3.29c0.72,1.84,1.13,2.97,1.25,3.37c0.1,0.34-0.02,0.56-0.34,0.65c-0.1,0.03-0.27,0.07-0.52,0.12
		c-4.42,0.89-8.35,1.83-11.8,2.82c-0.86,0.25-1.33,0.6-1.41,1.07c-0.03,0.22,0.11,0.85,0.42,1.91c0.32,1.1,0.69,1.79,1.12,2.05
		c0.36,0.23,0.94,0.23,1.72,0.01c0.16-0.05,0.48-0.15,0.94-0.31c0.46-0.16,0.85-0.29,1.16-0.37c2.05-0.59,4.1-1.24,6.16-1.96
		c0.17-0.07,0.61-0.24,1.3-0.51c0.53-0.22,0.96-0.38,1.29-0.48c0.39-0.11,0.64,0.02,0.75,0.39c-0.1-0.34,0.11,0.94,0.64,3.85
		c0.24,1.34,0.55,2.65,0.93,3.95c0.09,0.32-0.09,0.55-0.57,0.69l-2.26,0.39c-0.95,0.17-3.08,0.73-6.38,1.68l-2.58,0.74
		c-0.67,0.19-1.01,0.47-1.03,0.82c0.01,0.09,0.14,0.59,0.41,1.52c0.36,1.23,0.67,2.01,0.93,2.32c0.45,0.54,1.6,0.6,3.43,0.2
		c-0.03,0.01,1.15-0.33,3.56-1.03c0.86-0.25,2.12-0.69,3.77-1.34c1.65-0.64,2.9-1.09,3.75-1.33
		C197.79,57.75,198.05,57.99,198.22,58.57z"/>
	<path class="st10" d="M217.94,52.11c0.48,3.4-0.54,6.51-3.05,9.34c-2.21,2.5-5.07,4.29-8.58,5.39c-0.13,0.04-0.24,0.06-0.32,0.07
		c-0.39,0.05-1.4-1-3.06-3.16c-1.65-2.16-2.52-3.5-2.59-4.02c-0.03-0.18,0.08-0.32,0.33-0.41c2.35-0.9,3.89-1.59,4.62-2.09
		c1.62-1.12,2.31-2.53,2.06-4.24c-0.15-1.09-0.89-2.22-2.22-3.4c-2.3-2-3.55-3.11-3.75-3.34c-1.4-1.58-2.25-3.42-2.55-5.53
		c-0.43-3.06,0.62-5.81,3.16-8.23c2.07-2,4.75-3.49,8.05-4.47c0.18-0.04,0.32-0.07,0.42-0.08c0.25-0.04,0.48,0.14,0.69,0.52
		c0.61,1.16,1.93,3.23,3.98,6.2c0.06,0.09,0.1,0.17,0.11,0.24c0.04,0.28-0.09,0.45-0.39,0.49c-0.13,0.02-0.36,0.03-0.69,0.02
		c-0.33,0-0.57,0-0.74,0.03c-1.21,0.17-2.22,0.6-3.04,1.28c-1,0.79-1.42,1.75-1.25,2.89c0.14,1.02,0.92,2.19,2.34,3.51
		c2.5,2.38,3.82,3.62,3.93,3.74C216.82,48.54,217.68,50.29,217.94,52.11z"/>
	<path class="st10" d="M239.8,51.4c0.07,3.43-1.31,6.4-4.14,8.91c-2.49,2.22-5.54,3.66-9.16,4.33c-0.13,0.02-0.24,0.03-0.33,0.03
		c-0.39,0.01-1.28-1.16-2.66-3.51c-1.39-2.34-2.09-3.78-2.1-4.3c0-0.19,0.12-0.31,0.37-0.36c2.44-0.61,4.05-1.12,4.84-1.52
		c1.74-0.92,2.59-2.24,2.55-3.96c-0.02-1.1-0.62-2.31-1.8-3.64c-2.04-2.25-3.15-3.51-3.33-3.76c-1.2-1.73-1.83-3.66-1.88-5.79
		c-0.07-3.09,1.31-5.69,4.12-7.8c2.3-1.74,5.14-2.9,8.52-3.48c0.18-0.02,0.33-0.03,0.43-0.03c0.25-0.01,0.46,0.19,0.62,0.59
		c0.47,1.22,1.54,3.43,3.21,6.63c0.05,0.1,0.08,0.18,0.08,0.25c0.01,0.29-0.14,0.44-0.45,0.44c-0.14,0-0.37-0.02-0.69-0.06
		c-0.32-0.04-0.57-0.06-0.74-0.06c-1.22,0.03-2.28,0.33-3.18,0.91c-1.08,0.67-1.61,1.57-1.59,2.72c0.02,1.03,0.66,2.29,1.91,3.76
		c2.2,2.66,3.36,4.05,3.46,4.18C239.12,47.72,239.76,49.55,239.8,51.4z"/>
	<path class="st10" d="M288.62,70.15c-0.08,0.35-0.2,0.54-0.37,0.59c-0.08,0.03-0.32,0.02-0.72-0.03c-1.03-0.12-2.46-0.39-4.29-0.79
		c-2.59-0.57-4.1-0.96-4.53-1.16c-0.43-0.2-0.61-0.47-0.53-0.82c0.29-1.3,0.78-3.25,1.49-5.84c0.7-2.59,1.2-4.53,1.49-5.84
		c0.14-0.64,0.04-1.06-0.3-1.23c-0.53-0.26-2.51-0.76-5.95-1.52c-3.45-0.76-5.48-1.14-6.08-1.14c-0.38,0-0.64,0.33-0.79,0.99
		c-0.29,1.29-0.67,3.22-1.16,5.81c-0.49,2.58-0.87,4.52-1.15,5.81c-0.11,0.5-0.4,0.73-0.86,0.72c-0.55-0.02-2.11-0.31-4.69-0.88
		c-2.23-0.49-3.64-0.86-4.22-1.09c-0.46-0.19-0.64-0.5-0.55-0.93c0.39-1.78,1.08-4.45,2.05-8.01c0.97-3.56,1.65-6.24,2.05-8.04
		c0.42-1.91,0.98-4.81,1.66-8.68c0.68-3.87,1.24-6.77,1.66-8.68c0.08-0.36,0.29-0.51,0.64-0.43c0.51,0.11,1.28,0.31,2.3,0.59
		c1.02,0.28,1.79,0.47,2.3,0.59c0.53,0.12,1.33,0.27,2.41,0.45c1.08,0.19,1.88,0.34,2.41,0.46c0.28,0.06,0.39,0.24,0.32,0.54
		c-0.27,1.24-0.78,3.07-1.5,5.5s-1.23,4.26-1.5,5.5c-0.13,0.58-0.05,0.95,0.25,1.12c0.4,0.23,2.5,0.76,6.29,1.6
		c3.53,0.78,5.59,1.17,6.18,1.16c0.42-0.01,0.69-0.31,0.82-0.88c0.26-1.19,0.6-3,1.02-5.42c0.42-2.43,0.76-4.24,1.02-5.45
		c0.11-0.51,0.38-0.72,0.79-0.63c0.48,0.11,1.2,0.29,2.17,0.56c0.97,0.27,1.7,0.46,2.2,0.56c0.48,0.11,1.21,0.24,2.21,0.41
		c0.99,0.17,1.74,0.31,2.23,0.42c0.48,0.11,0.67,0.36,0.59,0.75c-0.42,1.9-1.13,4.74-2.14,8.54s-1.72,6.65-2.14,8.56
		c-0.4,1.8-0.91,4.52-1.53,8.15C289.53,65.66,289.02,68.37,288.62,70.15z"/>
	<path class="st10" d="M317.75,75.13c-0.29,0.67-0.95,1.84-1.98,3.51c-1.11,1.82-1.86,2.87-2.24,3.15
		c-0.31,0.21-0.63,0.25-0.96,0.11c-0.14-0.06-0.36-0.18-0.67-0.37c-1.07-0.64-4.34-2.14-9.82-4.5c-1.2-0.51-2.97-1.29-5.32-2.32
		c-2.35-1.03-4.12-1.8-5.3-2.31c-0.51-0.22-0.67-0.56-0.48-1.01c0.75-1.74,1.97-4.31,3.66-7.71c1.69-3.4,2.91-5.97,3.66-7.71
		c0.76-1.77,2.08-5.11,3.97-10.02c0.49-1.26,1.2-3.15,2.14-5.68l0.12-0.34c0.12-0.37,0.39-0.47,0.81-0.29
		c1.15,0.49,2.86,1.27,5.14,2.32c2.28,1.05,3.99,1.83,5.14,2.32c1.13,0.49,2.85,1.19,5.17,2.11c2.31,0.92,4.03,1.62,5.16,2.11
		c0.81,0.35,1.14,0.85,1.01,1.51c-0.08,0.39-0.42,1.53-1.04,3.4c-0.62,1.88-1.01,3.01-1.17,3.4c-0.14,0.33-0.37,0.42-0.67,0.29
		c-0.09-0.04-0.25-0.12-0.48-0.23c-3.98-2.12-7.62-3.88-10.91-5.3c-0.82-0.35-1.41-0.38-1.76-0.07c-0.16,0.15-0.45,0.73-0.89,1.74
		c-0.45,1.06-0.6,1.82-0.44,2.3c0.14,0.41,0.58,0.77,1.32,1.09c0.16,0.07,0.46,0.19,0.92,0.36c0.46,0.17,0.84,0.32,1.13,0.45
		c1.96,0.84,3.96,1.64,6.01,2.39c0.18,0.06,0.62,0.2,1.33,0.43c0.55,0.16,0.99,0.31,1.3,0.45c0.37,0.16,0.48,0.42,0.33,0.78
		c0.14-0.33-0.51,0.8-1.95,3.38c-0.66,1.19-1.25,2.4-1.79,3.65c-0.13,0.31-0.43,0.37-0.88,0.18l-2-1.13
		c-0.84-0.47-2.84-1.39-5.99-2.74l-2.47-1.06c-0.64-0.27-1.08-0.28-1.32-0.02c-0.05,0.07-0.26,0.55-0.64,1.43
		c-0.51,1.18-0.76,1.97-0.75,2.38c0.01,0.7,0.85,1.48,2.53,2.33c-0.03-0.01,1.1,0.47,3.4,1.46c0.82,0.35,2.08,0.81,3.76,1.36
		c1.69,0.55,2.93,1,3.74,1.35C317.94,74.22,317.99,74.57,317.75,75.13z"/>
	<path class="st10" d="M341.44,99.37c-0.07,0.1-0.25,0.08-0.56-0.07c-0.59-0.27-1.97-1.11-4.14-2.52c-1.85-1.21-3.09-2.08-3.69-2.59
		c-0.29-0.25-0.44-0.4-0.46-0.45c-0.06-0.1-0.06-0.3-0.02-0.62c0.15-0.69,0.37-1.71,0.67-3.07c0.37-1.77,0.87-4.43,1.5-7.95
		c0.11-0.72-0.28-1.41-1.17-2.06c0.41,0.31-0.33-0.16-2.21-1.38c-0.21-0.14-0.55,0.15-1.03,0.87c-0.63,0.96-1.48,2.46-2.55,4.48
		c-1.07,2.03-1.92,3.52-2.55,4.48c-0.16,0.24-0.31,0.34-0.47,0.3c-0.21-0.12-0.41-0.23-0.62-0.35c-0.87-0.49-2.19-1.31-3.96-2.47
		c-2.02-1.32-3.21-2.16-3.57-2.51c-0.36-0.35-0.42-0.71-0.19-1.06c1.02-1.56,2.62-3.86,4.83-6.9c2.2-3.04,3.81-5.35,4.84-6.92
		c3.91-5.99,6.82-10.74,8.75-14.27l0.17-0.31c0.14-0.25,0.47-0.27,0.99-0.05s2.73,1.54,6.65,3.98c2.65,1.65,4.76,2.99,6.32,4
		c3.23,2.11,5.38,4.55,6.47,7.34c1.23,3.15,0.84,6.27-1.19,9.37c-1.35,2.07-2.72,3.52-4.12,4.36c-1.4,0.84-3.28,1.32-5.63,1.44
		c-0.47,0.01-0.77,0.12-0.9,0.32c0.01-0.01-0.29,2.32-0.89,7.02C342.1,96.47,341.68,99,341.44,99.37z M344.96,74.51
		c1.13-1.73,1.34-3.29,0.64-4.7c-0.54-1.08-1.75-2.23-3.62-3.45c-1.34-0.88-2.19-1.14-2.55-0.78c-0.4,0.43-1.35,1.78-2.84,4.08
		c-0.21,0.33-0.52,0.81-0.92,1.46c-0.4,0.65-0.7,1.12-0.91,1.44c-0.05,0.07,0.13,0.29,0.54,0.66c0.78,0.69,1.64,1.35,2.59,1.97
		C341,77.19,343.35,76.97,344.96,74.51z"/>
	<path class="st10" d="M379.52,111.87c-3.68,3.77-7.98,5.76-12.87,5.96c-4.98,0.19-9.35-1.55-13.11-5.22
		c-3.74-3.65-5.56-7.98-5.48-13c0.07-4.91,1.94-9.24,5.6-12.99c3.67-3.76,7.97-5.74,12.89-5.94c5.03-0.21,9.41,1.5,13.15,5.15
		c3.71,3.63,5.52,7.96,5.44,13C385.04,103.78,383.17,108.13,379.52,111.87z M372.68,105.12c1.77-1.81,2.73-3.89,2.87-6.24
		c0.15-2.45-0.67-4.55-2.46-6.3c-1.7-1.67-3.82-2.39-6.35-2.17c-2.45,0.21-4.52,1.18-6.2,2.91c-1.81,1.85-2.77,3.92-2.9,6.2
		c-0.13,2.4,0.72,4.5,2.55,6.28c1.7,1.66,3.82,2.4,6.35,2.2C368.94,107.81,370.99,106.84,372.68,105.12z"/>
</g>
<g class="st6">
	<path class="st11" d="M43.04,231.86c5.44-0.23,10.07,1.32,13.9,4.63c3.88,3.38,5.93,7.79,6.16,13.21
		c0.23,5.39-1.47,9.94-5.09,13.66c-3.53,3.64-8,5.58-13.41,5.8c-5.42,0.23-10.06-1.33-13.9-4.66c-3.93-3.4-6.01-7.79-6.24-13.18
		c-0.22-5.35,1.48-9.9,5.12-13.63C33.16,234.03,37.65,232.08,43.04,231.86z M43.4,241.77c-2.62,0.11-4.81,1-6.57,2.66
		c-1.85,1.74-2.72,3.9-2.61,6.48c0.1,2.46,1.18,4.5,3.25,6.13c1.99,1.58,4.23,2.31,6.72,2.21c2.67-0.11,4.86-0.98,6.57-2.61
		c1.8-1.72,2.64-3.89,2.53-6.53c-0.1-2.46-1.18-4.51-3.22-6.15C48.12,242.4,45.89,241.67,43.4,241.77z"/>
	<path class="st11" d="M44.44,194.32c4.17,0.68,7.37,2.32,9.6,4.93c2.36,2.79,3.2,6.24,2.53,10.36c-0.11,0.69-0.32,1.72-0.62,3.09
		c-0.3,1.37-0.51,2.41-0.62,3.1c-0.12,0.74,0.14,1.16,0.78,1.27c0.79,0.13,1.98,0.24,3.58,0.34c1.59,0.1,2.78,0.21,3.55,0.34
		c0.4,0.06,0.57,0.28,0.51,0.64c-0.17,1.05-0.46,2.62-0.86,4.71c-0.4,2.09-0.69,3.66-0.86,4.71c-0.08,0.5-0.37,0.71-0.87,0.63
		c-1.91-0.31-4.78-0.81-8.6-1.49c-3.82-0.68-6.69-1.18-8.6-1.49c-5.41-0.88-11.13-1.57-17.17-2.08l-0.37-0.03
		c-0.33-0.02-0.49-0.31-0.47-0.87c0.05-1.37,0.44-4.35,1.19-8.93c0.44-2.7,0.9-5.29,1.37-7.76c0.79-4.06,2.6-7.15,5.46-9.25
		C36.88,194.4,40.38,193.66,44.44,194.32z M43.18,204.7c-4.01-0.65-6.34,0.98-6.98,4.89c-0.45,2.76-0.53,4.23-0.24,4.42
		c0.2,0.16,2.18,0.54,5.94,1.15c0.54,0.09,1.33,0.19,2.38,0.32c1.05,0.13,1.84,0.23,2.38,0.32c0.34,0.06,0.77-1.47,1.27-4.57
		C48.53,207.49,46.95,205.31,43.18,204.7z"/>
	<path class="st11" d="M68.91,168.06c0.71,0.25,1.96,0.85,3.75,1.79c1.95,1.02,3.09,1.72,3.4,2.09c0.24,0.31,0.3,0.63,0.18,0.98
		c-0.05,0.15-0.16,0.39-0.33,0.72c-0.59,1.14-1.91,4.62-3.95,10.43c-0.45,1.27-1.12,3.15-2.02,5.65c-0.9,2.5-1.57,4.37-2.01,5.62
		c-0.19,0.54-0.53,0.73-1,0.56c-1.84-0.65-4.58-1.73-8.2-3.24c-3.62-1.51-6.36-2.59-8.2-3.24c-1.88-0.66-5.41-1.79-10.6-3.4
		c-1.33-0.41-3.33-1.02-6-1.81l-0.36-0.1c-0.39-0.1-0.51-0.37-0.35-0.82c0.43-1.22,1.11-3.04,2.03-5.46
		c0.93-2.42,1.61-4.24,2.03-5.46c0.42-1.2,1.03-3.02,1.82-5.47c0.79-2.44,1.39-4.27,1.81-5.47c0.3-0.86,0.8-1.24,1.49-1.14
		c0.41,0.05,1.6,0.33,3.58,0.83c1.98,0.5,3.17,0.83,3.59,0.97c0.34,0.12,0.46,0.35,0.34,0.68c-0.04,0.1-0.1,0.27-0.21,0.51
		c-1.91,4.25-3.47,8.12-4.7,11.61c-0.31,0.87-0.29,1.48,0.05,1.82c0.17,0.15,0.79,0.42,1.86,0.79c1.12,0.39,1.92,0.49,2.4,0.29
		c0.41-0.17,0.76-0.65,1.03-1.44c0.06-0.16,0.16-0.49,0.3-0.98c0.14-0.49,0.27-0.89,0.38-1.2c0.73-2.08,1.41-4.19,2.04-6.36
		c0.05-0.19,0.17-0.65,0.36-1.4c0.13-0.58,0.25-1.04,0.37-1.37c0.14-0.4,0.4-0.53,0.78-0.39c-0.35-0.12,0.86,0.47,3.62,1.78
		c1.27,0.6,2.56,1.13,3.88,1.59c0.33,0.12,0.41,0.41,0.24,0.89l-1.03,2.14c-0.43,0.9-1.23,3.03-2.41,6.37l-0.92,2.62
		c-0.24,0.68-0.21,1.13,0.08,1.36c0.08,0.05,0.58,0.23,1.52,0.56c1.25,0.44,2.09,0.64,2.51,0.61c0.72-0.06,1.47-0.98,2.22-2.77
		c-0.01,0.03,0.41-1.17,1.27-3.6c0.31-0.87,0.69-2.2,1.14-3.97c0.45-1.78,0.83-3.09,1.13-3.95
		C67.96,167.92,68.32,167.85,68.91,168.06z"/>
	<path class="st11" d="M63.79,120.58c1.72,1.01,4.25,2.59,7.61,4.75c3.36,2.16,5.9,3.75,7.63,4.76l14.89,8.72
		c0.41,0.24,0.48,0.58,0.23,1.01c-0.21,0.36-0.52,0.92-0.91,1.66c-0.4,0.75-0.7,1.3-0.92,1.66c-0.23,0.39-0.6,0.96-1.12,1.71
		s-0.89,1.32-1.12,1.71c-0.16,0.27-0.6,0.45-1.31,0.53c-2.1,0.23-6.76,0.77-14,1.63c-2.01,0.22-5,0.59-8.97,1.12
		c-0.13,0.01-0.28,0.07-0.47,0.18c0.03,0.18,0.17,0.34,0.39,0.47c1.75,1.02,4.4,2.51,7.95,4.46c3.55,1.95,6.2,3.44,7.95,4.46
		c0.53,0.31,0.67,0.67,0.43,1.07l-4.58,7.82c-0.26,0.44-0.62,0.52-1.08,0.24c-1.63-0.95-4.03-2.47-7.23-4.55
		c-3.19-2.08-5.61-3.6-7.25-4.57c-1.73-1.01-4.36-2.46-7.9-4.34c-3.53-1.88-6.16-3.32-7.87-4.33c-0.33-0.19-0.32-0.58,0.02-1.17
		c0.51-0.87,1.08-1.99,1.71-3.34c0.15-0.32,0.4-0.97,0.75-1.96c0.31-0.83,0.59-1.47,0.84-1.9c0.11-0.18,0.53-0.31,1.26-0.39
		l16.48-1.66c1.48-0.14,3.67-0.39,6.56-0.74c0.69-0.1,1.11-0.29,1.27-0.56c0.12-0.2-0.42-0.64-1.59-1.33
		c-1.58-0.93-4.01-2.23-7.29-3.92c-3.28-1.69-5.72-3-7.31-3.94c-0.56-0.33-0.74-0.65-0.56-0.96c0.53-0.9,1.29-2.29,2.28-4.15
		c0.99-1.87,1.75-3.25,2.28-4.15C63,120.31,63.32,120.3,63.79,120.58z"/>
	<path class="st11" d="M129.38,102.05c0.22,0.23,0.21,0.54-0.02,0.92c-0.28,0.46-1.41,1.63-3.38,3.51
		c-1.81,1.72-3.02,2.78-3.63,3.17c-0.51,0.32-1.06,0.3-1.63-0.08c-2.16-1.41-3.43-2.06-3.79-1.96c-0.29,0.1-2.02,1.67-5.21,4.71
		c-2.15,2.05-3.24,3.19-3.27,3.44c-0.02,0.41,0.38,1.31,1.21,2.71c0.76,1.28,1.01,2.12,0.75,2.54c-0.33,0.51-1.73,1.93-4.18,4.27
		c-1.93,1.84-3.07,2.58-3.42,2.21c-0.31-0.33-2.73-5.73-7.26-16.19c-4.89-11.33-7.6-17.53-8.13-18.62
		c-0.31-0.62-0.36-1.03-0.16-1.23c0.34-0.33,0.9-0.8,1.67-1.41c0.77-0.62,1.34-1.09,1.69-1.43c0.34-0.33,0.82-0.83,1.44-1.5
		c0.62-0.68,1.1-1.17,1.42-1.48c0.24-0.23,0.66-0.23,1.26-0.01c1.88,0.74,8.03,3.56,18.43,8.48
		C123.66,99.06,129.06,101.7,129.38,102.05z M99.49,97.59c0.26,0.81,0.96,2.44,2.1,4.9c1.2,2.62,1.96,4.1,2.28,4.44
		c0.22,0.23,0.72-0.01,1.5-0.7c0.42-0.35,1.07-0.95,1.97-1.8c0.83-0.79,1.2-1.34,1.1-1.62c-0.04-0.09-0.11-0.19-0.22-0.3
		c-0.4-0.42-1.78-1.29-4.16-2.62C101.76,98.6,100.24,97.84,99.49,97.59z"/>
	<path class="st11" d="M153.44,80.72c0.15,0.24,0.19,0.64,0.13,1.22c-0.64,4.95-3.21,8.86-7.69,11.73
		c-4.59,2.94-9.31,3.75-14.16,2.44c-4.72-1.25-8.55-4.18-11.51-8.8c-2.86-4.47-3.93-9.13-3.2-13.99c0.75-5.08,3.31-9.02,7.7-11.82
		c4.76-3.05,9.43-3.98,14.01-2.78c0.5,0.13,0.83,0.33,0.99,0.58c0.18,0.28,0.33,1.64,0.46,4.09c0.12,2.45,0.13,3.87,0,4.26
		c-0.04,0.19-0.15,0.35-0.33,0.46c-0.07,0.05-0.63-0.01-1.67-0.18c-1.24-0.2-2.38-0.25-3.4-0.16c-1.54,0.16-2.93,0.63-4.18,1.43
		c-2.16,1.38-3.37,3.3-3.63,5.74c-0.23,2.26,0.36,4.5,1.77,6.7c1.43,2.24,3.23,3.73,5.38,4.48c2.35,0.82,4.6,0.54,6.76-0.85
		c1.28-0.82,2.31-1.87,3.1-3.17c0.51-0.85,0.95-1.85,1.3-3.01c0.29-0.97,0.47-1.48,0.54-1.53c0.15-0.09,0.35-0.11,0.6-0.04
		c0.4,0.11,1.63,0.62,3.68,1.53C152.23,80.01,153.34,80.56,153.44,80.72z"/>
	<path class="st11" d="M183.92,68.26c0.11,0.26,0.08,0.67-0.09,1.23c-1.53,4.75-4.76,8.13-9.69,10.14c-5.04,2.06-9.83,2-14.37-0.16
		c-4.41-2.08-7.65-5.66-9.72-10.74c-2-4.91-2.21-9.69-0.62-14.34c1.66-4.86,4.89-8.27,9.71-10.24c5.24-2.14,10-2.2,14.28-0.2
		c0.47,0.22,0.76,0.47,0.87,0.75c0.12,0.31,0.03,1.68-0.29,4.11c-0.32,2.43-0.58,3.82-0.77,4.19c-0.08,0.18-0.21,0.31-0.41,0.39
		c-0.08,0.03-0.62-0.13-1.61-0.48c-1.19-0.42-2.29-0.68-3.31-0.77c-1.54-0.12-3,0.09-4.37,0.65c-2.38,0.97-3.91,2.63-4.61,4.99
		c-0.64,2.18-0.46,4.49,0.53,6.91c1,2.46,2.5,4.25,4.48,5.38c2.16,1.23,4.43,1.36,6.8,0.39c1.41-0.57,2.62-1.42,3.62-2.55
		c0.66-0.74,1.27-1.65,1.83-2.73c0.46-0.9,0.73-1.37,0.81-1.41c0.16-0.07,0.36-0.04,0.59,0.07c0.38,0.19,1.49,0.91,3.34,2.17
		C182.85,67.34,183.85,68.08,183.92,68.26z"/>
	<path class="st11" d="M212.01,59.96c0.16,0.73,0.31,2.11,0.45,4.14c0.16,2.2,0.16,3.53,0.01,3.99c-0.13,0.37-0.38,0.59-0.74,0.67
		c-0.15,0.03-0.42,0.06-0.78,0.09c-1.28,0.1-4.93,0.81-10.95,2.12c-1.31,0.29-3.27,0.7-5.86,1.25c-2.6,0.55-4.54,0.96-5.84,1.25
		c-0.56,0.12-0.9-0.06-1-0.56c-0.42-1.91-0.94-4.8-1.56-8.68c-0.62-3.87-1.14-6.77-1.56-8.68c-0.42-1.94-1.32-5.54-2.68-10.8
		c-0.35-1.35-0.89-3.37-1.62-6.05l-0.1-0.35c-0.12-0.38,0.05-0.63,0.51-0.73c1.26-0.27,3.17-0.65,5.71-1.14s4.45-0.86,5.71-1.14
		c1.25-0.27,3.11-0.71,5.61-1.33c2.49-0.62,4.36-1.06,5.61-1.33c0.89-0.19,1.47,0.03,1.75,0.66c0.17,0.37,0.56,1.53,1.17,3.48
		c0.61,1.95,0.97,3.14,1.06,3.56c0.08,0.36-0.05,0.57-0.39,0.65c-0.1,0.02-0.28,0.05-0.54,0.09c-4.62,0.61-8.73,1.32-12.35,2.1
		c-0.9,0.2-1.41,0.53-1.52,1c-0.04,0.22,0.06,0.89,0.3,2c0.25,1.16,0.59,1.89,1.01,2.19c0.36,0.26,0.95,0.3,1.77,0.12
		c0.17-0.04,0.5-0.12,0.99-0.26s0.9-0.24,1.22-0.31c2.15-0.47,4.31-1,6.48-1.6c0.18-0.06,0.64-0.2,1.38-0.44
		c0.56-0.19,1.02-0.33,1.36-0.4c0.41-0.09,0.66,0.06,0.74,0.45c-0.08-0.36,0.05,0.98,0.39,4.01c0.16,1.39,0.39,2.77,0.69,4.14
		c0.07,0.34-0.14,0.56-0.63,0.67l-2.36,0.25c-1,0.11-3.22,0.54-6.68,1.3l-2.71,0.59c-0.7,0.15-1.07,0.41-1.12,0.78
		c0,0.09,0.11,0.62,0.32,1.59c0.28,1.3,0.55,2.11,0.8,2.45c0.43,0.59,1.61,0.73,3.53,0.44c-0.04,0.01,1.21-0.26,3.73-0.81
		c0.9-0.2,2.23-0.57,3.98-1.12c1.75-0.55,3.06-0.92,3.95-1.12C211.62,59.08,211.87,59.35,212.01,59.96z"/>
	<path class="st11" d="M232.92,54.65c0.26,3.53-1.01,6.67-3.8,9.41c-2.45,2.42-5.52,4.07-9.22,4.96c-0.14,0.03-0.25,0.04-0.34,0.05
		c-0.4,0.03-1.38-1.13-2.93-3.47c-1.55-2.34-2.35-3.79-2.39-4.33c-0.01-0.19,0.11-0.32,0.36-0.39c2.48-0.76,4.12-1.37,4.91-1.83
		c1.74-1.04,2.55-2.45,2.42-4.22c-0.08-1.13-0.77-2.35-2.05-3.65c-2.23-2.22-3.44-3.45-3.63-3.7c-1.33-1.72-2.08-3.68-2.24-5.87
		c-0.23-3.19,1.04-5.94,3.83-8.26c2.27-1.92,5.14-3.27,8.6-4.05c0.19-0.03,0.34-0.05,0.44-0.06c0.26-0.02,0.49,0.18,0.67,0.58
		c0.55,1.24,1.77,3.46,3.67,6.66c0.06,0.1,0.09,0.19,0.1,0.26c0.02,0.3-0.12,0.46-0.44,0.48c-0.14,0.01-0.38,0-0.71-0.03
		c-0.33-0.03-0.59-0.04-0.76-0.02c-1.25,0.09-2.33,0.46-3.23,1.1c-1.08,0.75-1.58,1.71-1.49,2.89c0.08,1.06,0.8,2.32,2.17,3.78
		c2.41,2.62,3.68,4,3.79,4.13C232.02,50.9,232.78,52.76,232.92,54.65z"/>
	<path class="st11" d="M255.5,55.45c-0.16,3.54-1.79,6.5-4.89,8.89c-2.72,2.11-5.97,3.38-9.74,3.82c-0.14,0.01-0.25,0.01-0.34,0.01
		c-0.4-0.02-1.23-1.29-2.5-3.8c-1.26-2.51-1.88-4.04-1.86-4.58c0.01-0.19,0.14-0.31,0.41-0.35c2.55-0.46,4.25-0.87,5.09-1.23
		c1.86-0.82,2.82-2.12,2.91-3.9c0.05-1.13-0.48-2.42-1.6-3.87c-1.95-2.47-3-3.83-3.17-4.1c-1.12-1.87-1.63-3.9-1.53-6.1
		c0.15-3.19,1.74-5.77,4.79-7.75c2.49-1.63,5.5-2.63,9.02-2.99c0.19-0.01,0.34-0.01,0.45-0.01c0.26,0.01,0.46,0.23,0.6,0.66
		c0.39,1.29,1.34,3.65,2.84,7.05c0.05,0.11,0.07,0.2,0.07,0.27c-0.01,0.3-0.18,0.44-0.49,0.42c-0.14-0.01-0.38-0.04-0.7-0.11
		c-0.33-0.07-0.58-0.11-0.76-0.11c-1.25-0.06-2.37,0.18-3.33,0.71c-1.16,0.61-1.77,1.51-1.83,2.69c-0.05,1.06,0.52,2.4,1.7,4.01
		c2.08,2.89,3.18,4.41,3.27,4.56C255.06,51.61,255.59,53.55,255.5,55.45z"/>
	<path class="st11" d="M304.48,78.26c-0.1,0.35-0.24,0.55-0.42,0.59c-0.08,0.03-0.33,0-0.74-0.08c-1.05-0.2-2.5-0.58-4.36-1.13
		c-2.63-0.78-4.16-1.28-4.59-1.52c-0.43-0.24-0.59-0.53-0.49-0.88c0.39-1.32,1.04-3.29,1.95-5.91c0.91-2.62,1.56-4.58,1.95-5.91
		c0.19-0.65,0.12-1.08-0.22-1.29c-0.53-0.3-2.54-0.97-6.02-2c-3.5-1.03-5.56-1.57-6.19-1.61c-0.39-0.03-0.69,0.3-0.89,0.97
		c-0.39,1.31-0.92,3.27-1.61,5.9c-0.69,2.63-1.22,4.59-1.61,5.9c-0.15,0.5-0.46,0.73-0.94,0.68c-0.57-0.06-2.15-0.47-4.76-1.25
		c-2.26-0.67-3.68-1.14-4.27-1.43c-0.46-0.23-0.63-0.56-0.5-0.99c0.53-1.81,1.43-4.51,2.68-8.11c1.25-3.6,2.15-6.31,2.69-8.13
		c0.57-1.94,1.35-4.88,2.34-8.82c0.98-3.94,1.76-6.88,2.33-8.82c0.11-0.37,0.34-0.5,0.69-0.4c0.52,0.15,1.29,0.41,2.33,0.77
		c1.03,0.36,1.81,0.62,2.33,0.77c0.54,0.16,1.35,0.37,2.45,0.64c1.09,0.27,1.91,0.48,2.44,0.64c0.29,0.08,0.38,0.28,0.29,0.58
		c-0.37,1.26-1.02,3.11-1.94,5.55c-0.92,2.45-1.57,4.3-1.94,5.55c-0.17,0.59-0.12,0.98,0.17,1.17c0.4,0.26,2.52,0.96,6.37,2.1
		c3.58,1.06,5.68,1.61,6.29,1.64c0.43,0.02,0.73-0.27,0.91-0.85c0.36-1.21,0.84-3.04,1.44-5.51c0.6-2.47,1.09-4.32,1.45-5.54
		c0.15-0.52,0.44-0.72,0.86-0.59c0.48,0.14,1.22,0.39,2.2,0.73c0.98,0.34,1.72,0.59,2.22,0.74c0.49,0.14,1.23,0.34,2.24,0.58
		c1.01,0.24,1.77,0.44,2.27,0.59c0.49,0.14,0.67,0.42,0.55,0.82c-0.57,1.93-1.51,4.81-2.82,8.64c-1.31,3.84-2.25,6.73-2.82,8.67
		c-0.54,1.82-1.26,4.59-2.16,8.29C305.74,73.7,305.02,76.45,304.48,78.26z"/>
	<path class="st11" d="M334.56,85.79c-0.35,0.67-1.11,1.82-2.3,3.47c-1.28,1.79-2.13,2.82-2.54,3.08c-0.34,0.2-0.67,0.21-1,0.04
		c-0.14-0.07-0.36-0.22-0.66-0.43c-1.05-0.74-4.31-2.53-9.78-5.37c-1.19-0.62-2.96-1.55-5.31-2.79c-2.35-1.24-4.11-2.16-5.29-2.78
		c-0.51-0.27-0.65-0.62-0.42-1.07c0.9-1.73,2.35-4.29,4.35-7.67c2-3.38,3.45-5.93,4.35-7.67c0.92-1.77,2.53-5.1,4.85-10.02
		c0.6-1.26,1.47-3.16,2.63-5.69l0.15-0.34c0.15-0.37,0.44-0.45,0.86-0.23c1.15,0.6,2.85,1.52,5.12,2.78
		c2.27,1.26,3.97,2.18,5.12,2.78c1.13,0.59,2.85,1.44,5.16,2.56c2.31,1.12,4.03,1.98,5.16,2.56c0.81,0.42,1.11,0.96,0.92,1.63
		c-0.11,0.4-0.55,1.54-1.32,3.43c-0.77,1.89-1.26,3.03-1.46,3.41c-0.17,0.33-0.41,0.41-0.72,0.25c-0.09-0.05-0.25-0.14-0.47-0.28
		c-3.94-2.48-7.56-4.57-10.84-6.28c-0.82-0.43-1.42-0.49-1.81-0.2c-0.18,0.15-0.52,0.72-1.05,1.73c-0.55,1.05-0.75,1.83-0.62,2.33
		c0.11,0.43,0.54,0.84,1.28,1.23c0.16,0.08,0.46,0.23,0.92,0.44c0.46,0.21,0.84,0.39,1.13,0.54c1.95,1.01,3.96,1.99,6.01,2.92
		c0.18,0.07,0.62,0.26,1.34,0.55c0.56,0.21,0.99,0.4,1.3,0.56c0.37,0.19,0.46,0.47,0.28,0.82c0.17-0.33-0.59,0.79-2.26,3.34
		c-0.77,1.17-1.47,2.38-2.12,3.62c-0.16,0.31-0.47,0.35-0.92,0.12l-1.97-1.32c-0.83-0.55-2.82-1.64-5.97-3.28l-2.46-1.28
		c-0.64-0.33-1.09-0.37-1.36-0.11c-0.06,0.07-0.31,0.54-0.77,1.43c-0.61,1.18-0.93,1.98-0.95,2.4c-0.04,0.73,0.77,1.59,2.43,2.59
		c-0.03-0.02,1.1,0.57,3.39,1.76c0.82,0.43,2.08,0.99,3.77,1.68c1.7,0.69,2.95,1.25,3.75,1.67
		C334.83,84.86,334.85,85.23,334.56,85.79z"/>
	<path class="st11" d="M357.45,112.81c-0.07,0.1-0.27,0.06-0.58-0.11c-0.59-0.32-1.95-1.29-4.07-2.92c-1.81-1.39-3.02-2.38-3.6-2.96
		c-0.27-0.27-0.42-0.44-0.44-0.5c-0.05-0.1-0.04-0.32,0.03-0.64c0.21-0.7,0.52-1.74,0.93-3.11c0.52-1.8,1.24-4.49,2.16-8.07
		c0.16-0.73-0.18-1.47-1.04-2.21c0.39,0.35-0.33-0.19-2.17-1.6c-0.21-0.16-0.58,0.11-1.12,0.82c-0.72,0.94-1.71,2.42-2.97,4.42
		c-1.26,2-2.25,3.48-2.97,4.42c-0.18,0.24-0.35,0.33-0.5,0.27c-0.21-0.13-0.41-0.27-0.61-0.4c-0.86-0.57-2.16-1.52-3.89-2.85
		c-1.98-1.52-3.14-2.47-3.48-2.86c-0.34-0.39-0.38-0.76-0.11-1.11c1.17-1.52,3-3.77,5.5-6.73s4.34-5.22,5.52-6.75
		c4.49-5.86,7.86-10.53,10.11-14.02l0.2-0.31c0.17-0.25,0.51-0.24,1.02,0.02c0.51,0.26,2.69,1.8,6.54,4.61
		c2.61,1.91,4.67,3.45,6.19,4.61c3.16,2.42,5.19,5.11,6.09,8.06c1.03,3.34,0.38,6.52-1.95,9.56c-1.55,2.02-3.08,3.41-4.58,4.17
		c-1.5,0.76-3.48,1.11-5.91,1.04c-0.49-0.02-0.81,0.06-0.96,0.26c0.01-0.01-0.48,2.37-1.46,7.16
		C358.35,109.88,357.73,112.45,357.45,112.81z M363,87.48c1.3-1.69,1.64-3.29,1.03-4.79c-0.48-1.16-1.63-2.44-3.46-3.84
		c-1.32-1.01-2.17-1.34-2.56-1.01c-0.44,0.41-1.52,1.73-3.24,3.98c-0.25,0.32-0.6,0.79-1.06,1.43c-0.46,0.63-0.81,1.1-1.05,1.41
		c-0.05,0.07,0.12,0.31,0.51,0.72c0.75,0.77,1.59,1.51,2.52,2.22C358.71,89.94,361.15,89.89,363,87.48z"/>
	<path class="st11" d="M396.02,129.14c-4.1,3.58-8.68,5.27-13.74,5.08c-5.14-0.21-9.5-2.37-13.07-6.46
		c-3.54-4.06-5.07-8.68-4.57-13.84c0.48-5.05,2.76-9.36,6.83-12.91c4.09-3.57,8.68-5.25,13.76-5.06c5.2,0.19,9.56,2.32,13.11,6.39
		c3.52,4.04,5.03,8.65,4.53,13.83C402.37,121.27,400.08,125.59,396.02,129.14z M389.54,121.63c1.97-1.72,3.13-3.78,3.46-6.18
		c0.36-2.51-0.32-4.74-2.01-6.69c-1.62-1.85-3.74-2.77-6.36-2.75c-2.54,0.01-4.75,0.84-6.63,2.48c-2.01,1.76-3.18,3.8-3.5,6.15
		c-0.33,2.46,0.37,4.69,2.11,6.67c1.62,1.85,3.74,2.78,6.36,2.79C385.46,124.09,387.66,123.27,389.54,121.63z"/>
</g>
<g>
	<path class="st2" d="M262.3,171.79c8.21-2.14,17.41,5.75,20.5,17.6c3.09,11.85-1.07,23.23-9.29,25.37
		c-8.21,2.14-17.41-5.75-20.5-17.6C249.92,185.32,254.09,173.93,262.3,171.79z"/>
	<path class="st2" d="M211.25,184.54c8.32-2.17,17.64,5.83,20.77,17.83c3.13,12-1.09,23.54-9.41,25.71
		c-8.32,2.17-17.64-5.83-20.77-17.83C198.71,198.24,202.93,186.71,211.25,184.54z"/>
	<g>
		<path class="st3" d="M263.05,158.45c-3.65-0.77-7.69,0.11-10.65,2.41c-0.62,0.48-1.46,0.6-2.06,0c-0.5-0.51-0.62-1.58,0-2.06
			c3.84-2.99,8.72-4.17,13.5-3.16c0.77,0.16,1.21,1.08,1.01,1.8C264.62,158.24,263.82,158.62,263.05,158.45z"/>
		<path class="st3" d="M251.22,197.63c3.39,12.99,13.81,21.56,23.22,19.11c9.41-2.46,14.31-15.02,10.92-28.02
			c-3.39-12.99-13.81-21.56-23.22-19.11C252.73,172.07,247.83,184.64,251.22,197.63z M253.63,197c-3.04-11.66,1.06-22.86,9.14-24.97
			c0.56-0.15,1.12-0.23,1.68-0.29c-2.9,5.37-3.76,12.79-1.79,20.41l12.13,0.35l-8.61,8.15c3.25,5.48,7.87,9.32,12.74,10.65
			c-1.44,1.45-3.16,2.51-5.12,3.02C265.73,216.43,256.68,208.66,253.63,197z"/>
		<path class="st3" d="M199.78,211.05c3.39,12.99,13.81,21.56,23.22,19.11c9.41-2.46,14.31-15.02,10.92-28.01
			c-3.39-12.99-13.81-21.56-23.22-19.11C201.29,185.5,196.39,198.06,199.78,211.05z M202.2,210.42
			c-3.04-11.66,1.06-22.86,9.14-24.97c0.56-0.15,1.12-0.23,1.68-0.29c-2.9,5.37-3.76,12.79-1.79,20.41l12.13,0.35l-8.61,8.15
			c3.25,5.48,7.87,9.32,12.74,10.65c-1.44,1.45-3.16,2.51-5.12,3.02C214.29,229.86,205.24,222.08,202.2,210.42z"/>
		<path class="st3" d="M211.61,171.88c-3.65-0.77-7.69,0.11-10.65,2.41c-0.62,0.48-1.46,0.6-2.06,0c-0.5-0.51-0.62-1.58,0-2.06
			c3.84-2.99,8.72-4.17,13.5-3.16c0.77,0.16,1.21,1.08,1.01,1.8C213.18,171.67,212.38,172.04,211.61,171.88z"/>
		<path class="st3" d="M251.89,214.91c-0.73-2.79-3.58-4.46-6.37-3.73c-2.79,0.73-4.46,3.58-3.73,6.37
			c0.73,2.79,3.58,4.46,6.37,3.73C250.94,220.56,252.62,217.7,251.89,214.91z M249.48,215.54c0.38,1.46-0.5,2.95-1.95,3.33
			c-1.45,0.38-2.95-0.5-3.33-1.95c-0.38-1.46,0.5-2.95,1.95-3.33C247.61,213.21,249.1,214.09,249.48,215.54z"/>
		<path class="st3" d="M235.66,225.27c4.27,3.37,10.09,2.88,14.93,1.21c4.16-1.44,8.9-3.88,10.28-8.4c0.49-1.62,3.04-0.92,2.54,0.71
			c-1.67,5.49-7.06,8.48-12.15,10.24c-5.85,2.02-12.43,2.08-17.47-1.9C232.45,226.08,234.34,224.23,235.66,225.27z"/>
		<path class="st3" d="M248.76,231.92c0.37,0,0.73-0.03,1.1-0.07c0.98-0.14,1.93-0.38,2.84-0.75c-0.05,0.02-0.1,0.04-0.15,0.06
			c0.33-0.14,0.64-0.23,1-0.12c0.31,0.09,0.64,0.32,0.79,0.61c0.16,0.31,0.24,0.68,0.13,1.02c-0.1,0.3-0.3,0.66-0.61,0.79
			c-1.64,0.69-3.35,1.09-5.13,1.11c-0.69,0.01-1.34-0.64-1.3-1.34C247.47,232.49,248.02,231.93,248.76,231.92z"/>
	</g>
</g>
</svg>
